<svg xmlns="http://www.w3.org/2000/svg" viewBox="0 0 500 500"><g id="freepik--Plants--inject-66"><path d="M133.7,431.1c2.1-.3,6.09-2.9,6.09-2.9s-2.51-2.11-2.68-2.22c-2-1.31-6.74-2.63-8.84-.91a3.2,3.2,0,0,0-.06,4.77C129.56,431.19,131.92,431.36,133.7,431.1Z" style="fill:#37474F"></path><path d="M172.57,411.32c.05,0-.93-3.14-1-3.34-1-2.21-4.17-5.91-6.87-5.62A3.2,3.2,0,0,0,162,406.3c.39,1.87,2.26,3.31,3.89,4.08C167.81,411.29,172.57,411.32,172.57,411.32Z" style="fill:#37474F"></path><path d="M177.65,464.36c.93,1.16,1.77,2.24,2.53,3.24h1.91c-1-1.23-2.08-2.63-3.35-4.13-.73-.88-1.53-1.81-2.37-2.75a30.37,30.37,0,0,0,2.12-2.91,20.72,20.72,0,0,0,5.63.4c.13,1.12.25,2.21.34,3.24.22,2.33.36,4.41.44,6.15h1.55c-.12-1.78-.31-3.9-.58-6.29-.13-1.14-.29-2.36-.47-3.6.44-.14,4-1.25,5.32-2.41s2.42-2.73,2.29-4.4a2.83,2.83,0,0,0-3.24-2.67c-2.35.43-4.13,4.33-4.42,6.44,0,.13,0,1.5,0,2.36-.07-.51-.14-1-.22-1.53-.16-1-.35-2.06-.54-3.16-.12-.53-.23-1.07-.35-1.61s-.28-1.1-.42-1.65c-.35-1.28-.77-2.56-1.22-3.84.9-.14,4.11-.68,5.45-1.54s2.8-2.33,2.92-4a2.81,2.81,0,0,0-2.8-3.12c-2.38.06-4.73,3.65-5.33,5.69,0,.13-.3,1.64-.43,2.48-.28-.77-.55-1.54-.86-2.3-.88-2.21-1.84-4.42-2.79-6.63-.29-.68-.57-1.36-.85-2,.32,0,4.14-.61,5.65-1.58,1.33-.86,2.79-2.33,2.92-4a2.81,2.81,0,0,0-2.8-3.12c-2.38.06-4.74,3.65-5.34,5.69,0,.16-.42,2.33-.49,2.89-.62-1.49-1.23-3-1.77-4.48A47,47,0,0,1,174.2,423c.15,0,4.14-.59,5.68-1.58,1.34-.86,2.8-2.33,2.92-4a2.81,2.81,0,0,0-2.79-3.12c-2.38.06-4.74,3.65-5.34,5.69,0,.14-.33,1.79-.45,2.59h-.13a36.58,36.58,0,0,1-.69-6.44c0-1.19,0-2.33,0-3.43.76,0,4.21-.21,5.69-.95s3-2,3.34-3.66a2.8,2.8,0,0,0-2.43-3.41c-2.38-.2-5.11,3.11-5.93,5.07-.05.11-.38,1.25-.61,2.08,0-.5.06-1,.1-1.5.15-1.79.4-3.43.63-4.87.14-.82.28-1.56.42-2.25.72-.42,3.63-2.13,4.59-3.45s1.76-3.18,1.28-4.79a2.83,2.83,0,0,0-3.74-1.9c-2.2.91-3.1,5.11-2.92,7.23,0,.19.58,3,.62,3l0,0c-.14.66-.29,1.37-.44,2.15-.27,1.44-.55,3.08-.74,4.88a48,48,0,0,0-.34,5.83,38,38,0,0,0,.55,6.51.19.19,0,0,1,0,.08c-.32-.62-1.29-2.32-1.38-2.44-1.26-1.72-4.69-4.29-6.95-3.55a2.81,2.81,0,0,0-1.57,3.89c.68,1.54,2.56,2.42,4.1,2.78,1.75.4,5.56-.37,5.86-.44a51.59,51.59,0,0,0,1.74,6.43c.42,1.23.87,2.45,1.35,3.67-.3-.53-.57-1-.62-1.06-1.25-1.71-4.69-4.29-7-3.54a2.82,2.82,0,0,0-1.57,3.89c.68,1.53,2.56,2.42,4.11,2.77s4.83-.23,5.69-.4c.18.47.36.93.55,1.4.9,2.23,1.81,4.46,2.64,6.66.29.78.54,1.56.81,2.34l-.54-.92c-1.25-1.71-4.69-4.29-6.95-3.54a2.81,2.81,0,0,0-1.57,3.89c.68,1.53,2.56,2.42,4.11,2.77s4.51-.17,5.53-.37c.24.8.49,1.61.69,2.4.12.54.28,1.05.37,1.6s.21,1.09.32,1.62c.16,1,.33,2.1.46,3.11.1.71.17,1.38.26,2.05-.29-.77-.87-2.28-.93-2.41a10.93,10.93,0,0,0-3.85-3.95,3.2,3.2,0,0,0-.34-.53,2.82,2.82,0,0,0-4.17-.44c-1.72,1.65-1.05,5.89-.12,7.81.05.11.78,1.27,1.25,2l-1-1.15c-.71-.77-1.43-1.53-2.21-2.34l-1.17-1.15c-.39-.39-.84-.76-1.26-1.14-1-.87-2.06-1.71-3.14-2.53.68-.61,3.06-2.84,3.7-4.3s1-3.48.22-5a2.8,2.8,0,0,0-4.05-1.06c-1.95,1.36-1.94,5.66-1.31,7.69,0,.13.65,1.54,1,2.3-.65-.48-1.3-1-2-1.44-1.95-1.36-4-2.67-6-4l-1.84-1.22c.25-.22,3.13-2.8,3.85-4.44.64-1.45,1-3.48.22-4.95a2.8,2.8,0,0,0-4.05-1.06c-2,1.36-1.94,5.66-1.31,7.69,0,.15.93,2.18,1.18,2.68-1.34-.9-2.68-1.8-3.95-2.75a50.39,50.39,0,0,1-4.93-4.14c.11-.1,3.13-2.79,3.87-4.46.64-1.46,1-3.49.22-4.95a2.81,2.81,0,0,0-4.05-1.07c-2,1.37-1.94,5.67-1.31,7.7,0,.13.71,1.67,1,2.4l-.11.08a36.16,36.16,0,0,1-4.13-5c-.68-1-1.28-1.94-1.85-2.9.61-.44,3.4-2.49,4.22-3.92s1.43-3.35.77-4.9a2.81,2.81,0,0,0-3.91-1.5c-2.09,1.14-2.55,5.41-2.15,7.5,0,.12.37,1.25.64,2.07-.25-.44-.51-.88-.74-1.31-.87-1.58-1.56-3.08-2.17-4.41-.33-.76-.62-1.45-.89-2.11.38-.74,1.85-3.78,1.93-5.4s-.28-3.63-1.58-4.7a2.81,2.81,0,0,0-4.16.47c-1.33,2,.23,6,1.55,7.65.11.14,2.15,2.19,2.17,2.15l0,0q.36.94.81,2c.58,1.35,1.24,2.87,2.08,4.48a51.58,51.58,0,0,0,2.93,5.05,36.28,36.28,0,0,0,4.06,5.12l.05.06c-.61-.34-2.35-1.22-2.49-1.27-2-.74-6.29-1-7.76.88a2.82,2.82,0,0,0,.84,4.11c1.42.9,3.47.6,4.95,0,1.68-.63,4.43-3.38,4.65-3.6a49.59,49.59,0,0,0,5,4.4c1,.79,2.07,1.56,3.14,2.32l-1.09-.54c-2-.74-6.29-1-7.76.88a2.82,2.82,0,0,0,.84,4.11c1.42.9,3.47.6,4.95,0s3.9-2.86,4.53-3.48l1.23.86c2,1.37,4,2.72,5.88,4.11.67.49,1.31,1,2,1.49-.48-.24-.88-.44-1-.46-2-.74-6.28-1-7.75.88a2.81,2.81,0,0,0,.83,4.11c1.42.9,3.47.6,5,0s3.66-2.64,4.41-3.37c.64.54,1.29,1.07,1.89,1.62.41.38.82.73,1.2,1.13l1.16,1.18c.7.77,1.43,1.57,2.1,2.34.47.53.9,1.05,1.35,1.57-.67-.49-2-1.43-2.11-1.5-1.85-1-6-1.93-7.79-.31a2.81,2.81,0,0,0,.2,4.19c1.27,1.11,3.34,1.13,4.89.8,1.71-.35,4.73-2.55,5.11-2.82C176.31,462.71,177,463.55,177.65,464.36Z" style="fill:#37474F"></path><path d="M14.18,440.45c1.56-.23,4.53-2.16,4.53-2.16s-1.87-1.57-2-1.65c-1.52-1-5-2-6.57-.68a2.39,2.39,0,0,0-.05,3.55A5,5,0,0,0,14.18,440.45Z" style="fill:#37474F"></path><path d="M43.09,425.73s-.69-2.34-.75-2.48c-.73-1.64-3.11-4.4-5.11-4.18a2.37,2.37,0,0,0-2,2.93,5,5,0,0,0,2.89,3C39.55,425.71,43.09,425.73,43.09,425.73Z" style="fill:#37474F"></path><path d="M46.87,465.19c.69.86,1.32,1.67,1.88,2.41h1.42c-.71-.92-1.55-2-2.49-3.07-.55-.66-1.14-1.35-1.76-2a22.59,22.59,0,0,0,1.57-2.16,15.32,15.32,0,0,0,4.19.29c.1.84.19,1.65.26,2.42.16,1.73.26,3.27.32,4.57h1.16c-.1-1.32-.23-2.9-.44-4.68-.09-.85-.21-1.75-.34-2.68a14.51,14.51,0,0,0,4-1.79,4.36,4.36,0,0,0,1.7-3.27,2.1,2.1,0,0,0-2.41-2c-1.74.32-3.07,3.22-3.28,4.79,0,.1,0,1.11,0,1.76-.05-.38-.1-.75-.17-1.14-.11-.77-.25-1.53-.4-2.35-.08-.4-.17-.8-.26-1.2s-.21-.82-.31-1.23c-.26-.95-.57-1.9-.91-2.85a13.8,13.8,0,0,0,4.06-1.15,4.37,4.37,0,0,0,2.17-3,2.11,2.11,0,0,0-2.08-2.33c-1.77.05-3.52,2.72-4,4.24,0,.1-.22,1.22-.32,1.84-.21-.57-.41-1.14-.64-1.71-.65-1.64-1.37-3.29-2.07-4.93-.22-.5-.43-1-.64-1.51a14.42,14.42,0,0,0,4.2-1.18,4.36,4.36,0,0,0,2.18-3A2.1,2.1,0,0,0,51.32,436c-1.77.05-3.53,2.72-4,4.24,0,.11-.32,1.73-.37,2.15-.46-1.11-.92-2.22-1.32-3.34a36.74,36.74,0,0,1-1.36-4.59,14.62,14.62,0,0,0,4.23-1.18,4.37,4.37,0,0,0,2.17-3,2.09,2.09,0,0,0-2.08-2.32c-1.77.05-3.52,2.72-4,4.24,0,.1-.24,1.33-.33,1.92h-.1a26,26,0,0,1-.51-4.79c0-.88,0-1.73,0-2.55a14.45,14.45,0,0,0,4.24-.71,4.37,4.37,0,0,0,2.48-2.72,2.1,2.1,0,0,0-1.81-2.54c-1.77-.15-3.8,2.32-4.41,3.78,0,.08-.28.92-.45,1.54,0-.37,0-.76.07-1.11.11-1.34.3-2.55.47-3.63.1-.61.21-1.16.31-1.67a14,14,0,0,0,3.41-2.57,4.37,4.37,0,0,0,1-3.56,2.1,2.1,0,0,0-2.78-1.42c-1.64.69-2.31,3.81-2.18,5.39,0,.13.44,2.24.47,2.23l0,0c-.11.49-.22,1-.33,1.6-.2,1.08-.41,2.29-.55,3.63a34.64,34.64,0,0,0-.25,4.34,27.2,27.2,0,0,0,.41,4.84s0,0,0,.06c-.24-.46-1-1.72-1-1.81-.93-1.28-3.49-3.2-5.17-2.64a2.09,2.09,0,0,0-1.17,2.89,4.42,4.42,0,0,0,3.06,2.07,14.34,14.34,0,0,0,4.35-.33,36.89,36.89,0,0,0,1.3,4.78c.31.92.65,1.82,1,2.73-.22-.39-.42-.74-.46-.78-.93-1.28-3.49-3.2-5.17-2.64a2.1,2.1,0,0,0-1.17,2.89,4.42,4.42,0,0,0,3.06,2.07,14,14,0,0,0,4.23-.3l.41,1c.67,1.66,1.35,3.31,2,5,.22.58.41,1.15.61,1.73-.2-.35-.37-.64-.4-.68-.93-1.27-3.49-3.19-5.17-2.63a2.09,2.09,0,0,0-1.17,2.89A4.36,4.36,0,0,0,46,452.52a13.47,13.47,0,0,0,4.12-.27c.18.59.37,1.19.51,1.78.1.4.21.78.28,1.19s.16.81.23,1.21c.12.76.25,1.56.35,2.31.07.52.13,1,.19,1.53-.21-.58-.64-1.7-.69-1.79a8.08,8.08,0,0,0-2.86-3,2.59,2.59,0,0,0-.25-.39,2.09,2.09,0,0,0-3.11-.32c-1.28,1.22-.78,4.38-.09,5.8,0,.08.58.95.94,1.48l-.77-.85c-.52-.58-1.06-1.14-1.64-1.74-.28-.29-.58-.57-.87-.86s-.63-.56-.94-.85c-.74-.65-1.53-1.27-2.33-1.88a13.71,13.71,0,0,0,2.75-3.2A4.39,4.39,0,0,0,42,449a2.1,2.1,0,0,0-3-.79c-1.45,1-1.44,4.21-1,5.72,0,.1.48,1.15.74,1.72q-.72-.56-1.47-1.08c-1.45-1-3-2-4.45-3l-1.37-.91a14.41,14.41,0,0,0,2.86-3.3,4.36,4.36,0,0,0,.17-3.68,2.1,2.1,0,0,0-3-.79c-1.45,1-1.44,4.21-1,5.72,0,.12.69,1.62.88,2-1-.67-2-1.35-2.94-2.05a37.11,37.11,0,0,1-3.67-3.08,14.82,14.82,0,0,0,2.88-3.32,4.39,4.39,0,0,0,.17-3.68,2.1,2.1,0,0,0-3-.79c-1.45,1-1.44,4.21-1,5.72,0,.1.53,1.25.78,1.79l-.08.06a26.78,26.78,0,0,1-3.07-3.72c-.51-.72-1-1.44-1.38-2.15a14.07,14.07,0,0,0,3.14-2.92,4.37,4.37,0,0,0,.57-3.64,2.09,2.09,0,0,0-2.91-1.12c-1.55.85-1.89,4-1.6,5.58,0,.09.28.93.48,1.54-.19-.33-.38-.66-.55-1-.65-1.18-1.16-2.29-1.61-3.28-.25-.57-.47-1.09-.67-1.57a14.21,14.21,0,0,0,1.44-4,4.41,4.41,0,0,0-1.17-3.5,2.11,2.11,0,0,0-3.11.35c-1,1.47.18,4.45,1.16,5.69.09.11,1.6,1.63,1.62,1.61l0,0c.18.47.37,1,.6,1.52.43,1,.92,2.14,1.54,3.33a40.16,40.16,0,0,0,2.19,3.76,28.06,28.06,0,0,0,3,3.81l.05,0c-.46-.25-1.76-.9-1.86-.94-1.48-.55-4.67-.74-5.77.65a2.1,2.1,0,0,0,.62,3.06,4.37,4.37,0,0,0,3.69,0,14.37,14.37,0,0,0,3.45-2.67A38,38,0,0,0,28.08,449c.76.59,1.55,1.16,2.34,1.73-.4-.21-.76-.38-.81-.4-1.49-.55-4.68-.74-5.77.65a2.1,2.1,0,0,0,.62,3.06,4.37,4.37,0,0,0,3.69,0,13.77,13.77,0,0,0,3.36-2.58l.92.64c1.48,1,3,2,4.37,3,.5.37,1,.74,1.46,1.12l-.71-.35c-1.48-.55-4.67-.74-5.76.65a2.09,2.09,0,0,0,.62,3.06,4.38,4.38,0,0,0,3.68,0,13.17,13.17,0,0,0,3.29-2.51c.48.4,1,.8,1.41,1.21s.6.54.89.84l.85.88c.53.57,1.07,1.16,1.57,1.74.35.39.67.78,1,1.17-.49-.37-1.47-1.07-1.56-1.12-1.38-.77-4.51-1.44-5.8-.23a2.1,2.1,0,0,0,.15,3.12,4.39,4.39,0,0,0,3.64.59,14.47,14.47,0,0,0,3.8-2.1C45.87,464,46.39,464.59,46.87,465.19Z" style="fill:#37474F"></path><path d="M479.08,432.43c-2.1-.3-6.09-2.9-6.09-2.9s2.51-2.11,2.69-2.22c2-1.3,6.74-2.63,8.83-.91a3.21,3.21,0,0,1,.07,4.78C483.22,432.52,480.87,432.69,479.08,432.43Z" style="fill:#37474F"></path><path d="M441.15,412.65s.93-3.14,1-3.33c1-2.22,4.18-5.92,6.87-5.63a3.2,3.2,0,0,1,2.69,3.94c-.39,1.87-2.26,3.31-3.89,4.08C445.91,412.62,441.15,412.65,441.15,412.65Z" style="fill:#37474F"></path><path d="M436.77,464.29c-.93,1.15-1.77,2.24-2.53,3.24h-1.91c1-1.23,2.08-2.63,3.35-4.13.73-.88,1.54-1.81,2.37-2.75a29.14,29.14,0,0,1-2.11-2.91,20.31,20.31,0,0,1-5.64.39c-.13,1.13-.25,2.22-.34,3.25-.22,2.33-.35,4.4-.44,6.15H428c.13-1.78.31-3.91.59-6.3.12-1.14.28-2.35.46-3.59-.44-.14-4-1.25-5.32-2.41s-2.41-2.73-2.28-4.41a2.82,2.82,0,0,1,3.24-2.66c2.34.42,4.13,4.33,4.41,6.44,0,.12,0,1.49.05,2.36.07-.51.14-1,.22-1.53.16-1,.35-2.06.55-3.17.11-.53.23-1.06.34-1.6s.29-1.1.43-1.66c.35-1.27.77-2.55,1.22-3.83-.91-.14-4.12-.68-5.46-1.55s-2.79-2.33-2.92-4a2.83,2.83,0,0,1,2.8-3.13c2.38.07,4.74,3.66,5.34,5.7,0,.13.3,1.64.43,2.47.27-.76.55-1.53.85-2.29.88-2.21,1.84-4.43,2.79-6.63l.86-2c-.32,0-4.15-.61-5.65-1.57-1.34-.87-2.8-2.33-2.92-4a2.81,2.81,0,0,1,2.79-3.12c2.38.06,4.74,3.65,5.34,5.69,0,.16.42,2.33.49,2.89.63-1.49,1.24-3,1.78-4.48a50.74,50.74,0,0,0,1.83-6.17c-.15,0-4.15-.59-5.69-1.59-1.34-.86-2.8-2.32-2.92-4a2.83,2.83,0,0,1,2.8-3.13c2.38.07,4.73,3.66,5.33,5.7,0,.13.33,1.79.45,2.58h.14a35.72,35.72,0,0,0,.68-6.44c0-1.19,0-2.33,0-3.44-.75,0-4.2-.2-5.69-.94s-3-2-3.34-3.66a2.82,2.82,0,0,1,2.44-3.41c2.37-.2,5.11,3.11,5.93,5.07,0,.11.37,1.24.6,2.07,0-.5-.05-1-.1-1.49-.15-1.8-.39-3.43-.63-4.88-.13-.82-.27-1.56-.41-2.25-.73-.41-3.63-2.13-4.59-3.44s-1.77-3.18-1.28-4.79a2.81,2.81,0,0,1,3.73-1.91c2.2.92,3.1,5.12,2.93,7.24,0,.18-.59,3-.63,3l0,0c.15.67.3,1.38.45,2.16.26,1.44.54,3.07.73,4.87a48.3,48.3,0,0,1,.34,5.83,36.1,36.1,0,0,1-.55,6.52.19.19,0,0,1,0,.07c.33-.61,1.3-2.31,1.38-2.43,1.26-1.72,4.7-4.3,7-3.55a2.82,2.82,0,0,1,1.57,3.89c-.69,1.54-2.56,2.42-4.11,2.78-1.75.4-5.55-.38-5.86-.44a48.76,48.76,0,0,1-1.74,6.43c-.41,1.22-.87,2.45-1.34,3.66l.61-1.05c1.26-1.71,4.69-4.29,6.95-3.54a2.81,2.81,0,0,1,1.58,3.88c-.69,1.54-2.56,2.42-4.11,2.78s-4.83-.23-5.69-.4c-.19.46-.37.93-.56,1.4-.9,2.23-1.81,4.45-2.63,6.66-.29.78-.55,1.56-.81,2.33.26-.46.49-.85.53-.91,1.26-1.72,4.69-4.29,6.95-3.55a2.83,2.83,0,0,1,1.58,3.89c-.69,1.54-2.56,2.42-4.11,2.78s-4.51-.18-5.54-.37c-.24.8-.49,1.6-.69,2.39-.12.55-.28,1.06-.37,1.61s-.21,1.08-.31,1.62c-.16,1-.33,2.1-.47,3.11-.09.7-.17,1.37-.25,2.05.28-.78.86-2.29.92-2.41a11,11,0,0,1,3.85-4,3.58,3.58,0,0,1,.34-.52,2.82,2.82,0,0,1,4.17-.44c1.72,1.65,1.06,5.89.13,7.8-.06.12-.79,1.28-1.26,2,.34-.38.67-.76,1-1.15.7-.77,1.42-1.53,2.2-2.34l1.17-1.15c.39-.4.84-.76,1.27-1.15,1-.87,2.05-1.7,3.13-2.52-.68-.61-3.05-2.84-3.69-4.3s-1.05-3.48-.23-4.95a2.81,2.81,0,0,1,4.06-1.06c1.95,1.36,1.93,5.66,1.3,7.69,0,.13-.65,1.53-1,2.3.65-.48,1.3-1,2-1.44,1.95-1.36,4-2.67,6-4l1.84-1.23c-.24-.21-3.12-2.79-3.84-4.43-.64-1.45-1-3.49-.23-4.95a2.82,2.82,0,0,1,4.06-1.07c1.95,1.37,1.93,5.67,1.31,7.7-.05.15-.94,2.18-1.19,2.68,1.35-.9,2.68-1.81,4-2.76a48.81,48.81,0,0,0,4.93-4.14c-.12-.1-3.14-2.78-3.87-4.45-.64-1.46-1.05-3.49-.23-5a2.83,2.83,0,0,1,4.06-1.06c1.95,1.37,1.93,5.66,1.31,7.69-.05.14-.72,1.68-1.06,2.41l.11.08a36.16,36.16,0,0,0,4.13-5c.69-1,1.29-1.94,1.85-2.9-.61-.44-3.39-2.49-4.22-3.93s-1.43-3.34-.77-4.89a2.81,2.81,0,0,1,3.92-1.5c2.08,1.14,2.54,5.41,2.14,7.5,0,.11-.37,1.24-.64,2.06.25-.43.52-.88.74-1.3.87-1.58,1.56-3.08,2.17-4.41.34-.76.63-1.46.89-2.11-.37-.75-1.85-3.78-1.92-5.4s.27-3.63,1.57-4.71a2.82,2.82,0,0,1,4.17.48c1.32,2-.24,6-1.56,7.64-.11.15-2.15,2.2-2.17,2.16l0,0c-.25.63-.51,1.31-.82,2-.58,1.35-1.24,2.87-2.07,4.47a49.51,49.51,0,0,1-2.94,5.05,37,37,0,0,1-4.05,5.13l-.06.05c.61-.33,2.36-1.21,2.5-1.26,2-.74,6.28-1,7.75.87a2.82,2.82,0,0,1-.83,4.11c-1.42.9-3.47.61-5,.05-1.68-.62-4.43-3.37-4.64-3.59a50.71,50.71,0,0,1-5,4.4c-1,.79-2.08,1.56-3.15,2.32.54-.28,1-.52,1.1-.54,2-.74,6.28-1,7.75.87a2.82,2.82,0,0,1-.83,4.11c-1.42.91-3.47.61-5,.05s-3.9-2.86-4.53-3.47l-1.23.86c-2,1.36-4,2.72-5.87,4.1-.68.49-1.32,1-2,1.5l1-.46c2-.74,6.29-1,7.76.87a2.82,2.82,0,0,1-.84,4.11c-1.42.91-3.47.61-4.95.05s-3.67-2.63-4.42-3.36c-.64.53-1.29,1.07-1.89,1.62-.4.38-.82.72-1.2,1.13l-1.15,1.18c-.71.77-1.44,1.57-2.11,2.34l-1.34,1.57c.66-.5,2-1.43,2.1-1.5,1.86-1,6.06-1.94,7.8-.31a2.81,2.81,0,0,1-.21,4.19c-1.26,1.11-3.33,1.13-4.89.8s-4.73-2.55-5.11-2.83C438.12,462.64,437.42,463.48,436.77,464.29Z" style="fill:#37474F"></path></g><g id="freepik--Floor--inject-66"><line x1="483.04" y1="467.88" x2="490" y2="467.88" style="fill:none;stroke:#263238;stroke-linecap:round;stroke-linejoin:round"></line><line x1="15" y1="467.88" x2="475.62" y2="467.88" style="fill:none;stroke:#263238;stroke-linecap:round;stroke-linejoin:round"></line></g><g id="freepik--Clouds--inject-66"><path d="M457.7,69.2c-4.7-2.56-6.83-.42-8.54-2.56s4.7-7.69-8.11-13.24c0,0-.86-12-18.37-12.39s-12.81,12-17.51,15-6-1.71-10.68,1.28-2.56,9-6.41,9.83-9-3.85-13.66-.86-4.7,5.56-6.84,5.56-6.4-1.71-9,0-5.55,3.84-5.55,3.84H461.12S462.4,71.77,457.7,69.2Z" style="fill:#37474F"></path><g style="opacity:0.5"><path d="M457.7,69.2c-4.7-2.56-6.83-.42-8.54-2.56s4.7-7.69-8.11-13.24c0,0-.86-12-18.37-12.39s-12.81,12-17.51,15-6-1.71-10.68,1.28-2.56,9-6.41,9.83-9-3.85-13.66-.86-4.7,5.56-6.84,5.56-6.4-1.71-9,0-5.55,3.84-5.55,3.84H461.12S462.4,71.77,457.7,69.2Z" style="fill:#fff"></path></g><path d="M368.6,62.31c-2.88-1.57-4.18-.26-5.23-1.57s2.88-4.71-5-8.1c0,0-.53-7.32-11.24-7.58s-7.84,7.32-10.72,9.14-3.65-1-6.53.79-1.57,5.49-3.92,6-5.49-2.35-8.36-.52-2.88,3.39-4.18,3.39-3.93-1-5.49,0-3.4,2.36-3.4,2.36h66.12S371.47,63.87,368.6,62.31Z" style="fill:#37474F"></path><g style="opacity:0.5"><path d="M368.6,62.31c-2.88-1.57-4.18-.26-5.23-1.57s2.88-4.71-5-8.1c0,0-.53-7.32-11.24-7.58s-7.84,7.32-10.72,9.14-3.65-1-6.53.79-1.57,5.49-3.92,6-5.49-2.35-8.36-.52-2.88,3.39-4.18,3.39-3.93-1-5.49,0-3.4,2.36-3.4,2.36h66.12S371.47,63.87,368.6,62.31Z" style="fill:#fff"></path></g><path d="M172.7,116.2c-4.69-2.56-6.83-.42-8.54-2.56s4.7-7.69-8.11-13.24c0,0-.86-12-18.37-12.39S124.87,100,120.17,103s-6-1.71-10.68,1.28-2.56,9-6.41,9.83-9-3.85-13.66-.86-4.7,5.56-6.84,5.56-6.4-1.71-9,0-5.55,3.84-5.55,3.84H176.12S177.4,118.77,172.7,116.2Z" style="fill:#37474F"></path><g style="opacity:0.5"><path d="M172.7,116.2c-4.69-2.56-6.83-.42-8.54-2.56s4.7-7.69-8.11-13.24c0,0-.86-12-18.37-12.39S124.87,100,120.17,103s-6-1.71-10.68,1.28-2.56,9-6.41,9.83-9-3.85-13.66-.86-4.7,5.56-6.84,5.56-6.4-1.71-9,0-5.55,3.84-5.55,3.84H176.12S177.4,118.77,172.7,116.2Z" style="fill:#fff"></path></g><path d="M83.6,109.31c-2.88-1.57-4.18-.26-5.23-1.57s2.88-4.71-5-8.1c0,0-.53-7.32-11.24-7.58s-7.84,7.32-10.72,9.14-3.65-1-6.53.79-1.57,5.49-3.92,6-5.49-2.35-8.36-.52-2.88,3.39-4.18,3.39-3.93-1-5.49,0-3.4,2.36-3.4,2.36H85.69S86.47,110.87,83.6,109.31Z" style="fill:#37474F"></path><g style="opacity:0.5"><path d="M83.6,109.31c-2.88-1.57-4.18-.26-5.23-1.57s2.88-4.71-5-8.1c0,0-.53-7.32-11.24-7.58s-7.84,7.32-10.72,9.14-3.65-1-6.53.79-1.57,5.49-3.92,6-5.49-2.35-8.36-.52-2.88,3.39-4.18,3.39-3.93-1-5.49,0-3.4,2.36-3.4,2.36H85.69S86.47,110.87,83.6,109.31Z" style="fill:#fff"></path></g></g><g id="freepik--Chart--inject-66"><rect x="43.23" y="43.78" width="420.69" height="192.29" rx="8.42" style="fill:none;stroke:#263238;stroke-linecap:round;stroke-miterlimit:10"></rect><line x1="50.37" y1="57.21" x2="58.17" y2="57.21" style="fill:none;stroke:#263238;stroke-linecap:round;stroke-miterlimit:10"></line><line x1="50.37" y1="67.61" x2="58.17" y2="67.61" style="fill:none;stroke:#263238;stroke-linecap:round;stroke-miterlimit:10"></line><line x1="50.37" y1="78.01" x2="58.17" y2="78.01" style="fill:none;stroke:#263238;stroke-linecap:round;stroke-miterlimit:10"></line><line x1="50.37" y1="88.41" x2="58.17" y2="88.41" style="fill:none;stroke:#263238;stroke-linecap:round;stroke-miterlimit:10"></line><line x1="50.37" y1="98.81" x2="58.17" y2="98.81" style="fill:none;stroke:#263238;stroke-linecap:round;stroke-miterlimit:10"></line><line x1="50.37" y1="109.21" x2="58.17" y2="109.21" style="fill:none;stroke:#263238;stroke-linecap:round;stroke-miterlimit:10"></line><line x1="50.37" y1="119.6" x2="58.17" y2="119.6" style="fill:none;stroke:#263238;stroke-linecap:round;stroke-miterlimit:10"></line><line x1="50.37" y1="130" x2="58.17" y2="130" style="fill:none;stroke:#263238;stroke-linecap:round;stroke-miterlimit:10"></line><line x1="50.37" y1="140.4" x2="58.17" y2="140.4" style="fill:none;stroke:#263238;stroke-linecap:round;stroke-miterlimit:10"></line><line x1="50.37" y1="150.8" x2="58.17" y2="150.8" style="fill:none;stroke:#263238;stroke-linecap:round;stroke-miterlimit:10"></line><line x1="50.37" y1="161.2" x2="58.17" y2="161.2" style="fill:none;stroke:#263238;stroke-linecap:round;stroke-miterlimit:10"></line><line x1="50.37" y1="171.6" x2="58.17" y2="171.6" style="fill:none;stroke:#263238;stroke-linecap:round;stroke-miterlimit:10"></line><line x1="50.37" y1="182" x2="58.17" y2="182" style="fill:none;stroke:#263238;stroke-linecap:round;stroke-miterlimit:10"></line><line x1="50.37" y1="192.4" x2="58.17" y2="192.4" style="fill:none;stroke:#263238;stroke-linecap:round;stroke-miterlimit:10"></line><line x1="50.37" y1="202.8" x2="58.17" y2="202.8" style="fill:none;stroke:#263238;stroke-linecap:round;stroke-miterlimit:10"></line><line x1="50.37" y1="213.2" x2="58.17" y2="213.2" style="fill:none;stroke:#263238;stroke-linecap:round;stroke-miterlimit:10"></line><line x1="50.37" y1="223.6" x2="58.17" y2="223.6" style="fill:none;stroke:#263238;stroke-linecap:round;stroke-miterlimit:10"></line><path d="M412.84,186.28C399.39,156,387.39,79.57,358.67,78.49,330,79.57,318,156,304.51,186.28s-40,37.8-40,37.8H452.82S426.29,216.52,412.84,186.28Z" style="fill:#37474F"></path><path d="M198,186.28c-12.3-30.24-23.28-73.43-49.55-74.51-26.27,1.08-37.25,44.27-49.55,74.51s-36.58,37.8-36.58,37.8H234.59S210.32,216.52,198,186.28Z" style="fill:#37474F"></path><path d="M263.39,224.5a10.46,10.46,0,0,0,1.14-.42H234.59a9.21,9.21,0,0,0,1,.42Z" style="fill:#37474F"></path><path d="M452.44,224.5c-3.27-.79-27.09-7.2-39.6-28.39-13.45-22.79-25.45-80.41-54.17-81.22-28.71.81-40.71,58.43-54.16,81.22-12.51,21.19-36.33,27.6-39.6,28.39Z" style="fill:#263238"></path><path d="M234.24,224.5c-3-.79-24.78-7.2-36.23-28.39-12.3-22.79-23.28-55.34-49.55-56.15-26.27.81-37.25,33.36-49.55,56.15-11.45,21.19-33.24,27.6-36.23,28.39Z" style="fill:#263238"></path><path d="M337.72,178.93v.22h-.89v-.27c0-.76-.29-1.2-1-1.2s-1,.44-1,1.19c0,1.88,2.82,2.06,2.82,4.42,0,1.27-.61,2.1-1.89,2.1s-1.89-.83-1.89-2.1v-.48h.88v.53c0,.76.31,1.2,1,1.2s1-.44,1-1.2c0-1.87-2.81-2.05-2.81-4.41,0-1.3.6-2.1,1.86-2.1S337.72,177.66,337.72,178.93Z" style="fill:#fff"></path><path d="M341.54,180.63v.84h-2.05v3H342v.85h-3.45v-8.4H342v.85h-2.51v2.87Z" style="fill:#fff"></path><path d="M346.58,178.94v.75h-.89v-.8c0-.75-.3-1.21-1-1.21s-1,.46-1,1.21v4.44c0,.75.31,1.21,1,1.21s1-.46,1-1.21v-1.09h.89v1c0,1.27-.6,2.11-1.9,2.11s-1.88-.84-1.88-2.11v-4.34c0-1.27.6-2.11,1.88-2.11S346.58,177.67,346.58,178.94Z" style="fill:#fff"></path><path d="M347.36,178.94c0-1.28.63-2.11,1.92-2.11s1.93.83,1.93,2.11v4.34a1.85,1.85,0,0,1-1.93,2.11c-1.29,0-1.92-.84-1.92-2.11Zm.92,4.39c0,.77.33,1.21,1,1.21s1-.44,1-1.21v-4.44c0-.75-.31-1.21-1-1.21s-1,.46-1,1.21Z" style="fill:#fff"></path><path d="M352.93,185.31h-.84v-8.4h1.18l2,6.07v-6.07H356v8.4h-1l-2.14-6.79Z" style="fill:#fff"></path><path d="M359,176.91c1.31,0,1.91.79,1.91,2.09v4.23c0,1.29-.6,2.08-1.91,2.08h-2v-8.4Zm0,7.55c.67,0,1-.42,1-1.19V179c0-.77-.33-1.19-1-1.19h-1v6.7Z" style="fill:#fff"></path><path d="M365.85,185.31h-1.28l-1.16-8.4h.92l1,7.15.93-7.14h.93l.92,7.15,1-7.16h.81l-1.14,8.4h-1.23l-.8-5.7Z" style="fill:#fff"></path><path d="M371.38,183.62l-.32,1.69h-.87l1.61-8.4h1.36l1.6,8.4h-.93l-.33-1.69Zm.12-.81h1.87l-.95-4.84Z" style="fill:#fff"></path><path d="M375.91,176.91l1.36,7.31,1.36-7.31h.86l-1.57,8.4h-1.38l-1.58-8.4Z" style="fill:#fff"></path><path d="M383.2,180.63v.84h-2.05v3h2.52v.85h-3.46v-8.4h3.46v.85h-2.52v2.87Z" style="fill:#fff"></path><path d="M127,180.82v.85h-1.94v3.64h-.93v-8.4h3.33v.85h-2.4v3.06Z" style="fill:#fff"></path><path d="M129.16,176.91v8.4h-.93v-8.4Z" style="fill:#fff"></path><path d="M132,176.91c1.31,0,1.87.67,1.87,1.92v.68a1.57,1.57,0,0,1-1.05,1.73c.77.23,1.06.85,1.06,1.75v1.31a2.07,2.07,0,0,0,.17,1h-1a2.17,2.17,0,0,1-.16-1V183c0-.95-.44-1.25-1.22-1.25h-.66v3.59h-.94v-8.4Zm-.24,4c.74,0,1.18-.24,1.18-1.15v-.81c0-.75-.27-1.15-1-1.15h-.91v3.11Z" style="fill:#fff"></path><path d="M138.49,178.93v.22h-.89v-.27c0-.76-.29-1.2-1-1.2s-1,.44-1,1.19c0,1.88,2.82,2.06,2.82,4.42,0,1.27-.61,2.1-1.9,2.1s-1.88-.83-1.88-2.1v-.48h.88v.53c0,.76.31,1.2,1,1.2s1-.44,1-1.2c0-1.87-2.8-2.05-2.8-4.41,0-1.3.6-2.1,1.86-2.1S138.49,177.66,138.49,178.93Z" style="fill:#fff"></path><path d="M140.53,185.31v-7.55H139v-.85h4v.85h-1.55v7.55Z" style="fill:#fff"></path><path d="M147.73,185.31h-1.29l-1.15-8.4h.91l1,7.15.93-7.14h.93l.92,7.15.95-7.16h.81l-1.14,8.4h-1.23l-.81-5.7Z" style="fill:#fff"></path><path d="M153.26,183.62l-.32,1.69h-.87l1.61-8.4H155l1.61,8.4h-.93l-.33-1.69Zm.12-.81h1.87L154.3,178Z" style="fill:#fff"></path><path d="M157.78,176.91l1.37,7.31,1.36-7.31h.86l-1.57,8.4h-1.38l-1.58-8.4Z" style="fill:#fff"></path><path d="M165.08,180.63v.84H163v3h2.52v.85h-3.46v-8.4h3.46v.85H163v2.87Z" style="fill:#fff"></path><line x1="249.45" y1="223.68" x2="249.45" y2="222.18" style="fill:none;stroke:#263238;stroke-linecap:round;stroke-miterlimit:10"></line><line x1="249.45" y1="219.22" x2="249.45" y2="60.97" style="fill:none;stroke:#263238;stroke-linecap:round;stroke-miterlimit:10;stroke-dasharray:2.9579899311065674,2.9579899311065674"></line><line x1="249.45" y1="59.49" x2="249.45" y2="57.99" style="fill:none;stroke:#263238;stroke-linecap:round;stroke-miterlimit:10"></line></g><g id="freepik--Viruses--inject-66"><path d="M283.47,90.39a4,4,0,0,0,.62.51h-5.61a3.92,3.92,0,0,0,.61-.51,4.18,4.18,0,0,0,1.13-2.82l.19-6.7c-.38-.16-1-.52-1-.88,0-.6.87-1.09,1.95-1.09s1.95.49,1.95,1.09c0,.4-.71.77-1.15.92l.19,6.66A4.17,4.17,0,0,0,283.47,90.39Zm-8.6.09-3.18-5.16c.28-.32.67-.94.49-1.25-.27-.47-1.18-.46-2,0s-1.31,1.27-1,1.75c.17.28.82.28,1.19.23l2.89,5.37a3.83,3.83,0,0,1,.4,2.73,4,4,0,0,1-.25.68l2.08-1.21.25-.14,2.08-1.2a3.9,3.9,0,0,1-.71-.12A3.85,3.85,0,0,1,274.87,90.48ZM268,94.62l-5.86-3.16c.09-.46.12-1.26-.22-1.46-.52-.3-1.38.21-1.92,1.14s-.55,1.94,0,2.24c.31.17.93-.18,1.26-.43l5.7,3.52a4.21,4.21,0,0,1,1.89,2.38,4.82,4.82,0,0,1,.13.79l1.32-2.29.16-.27,1.32-2.3a3.38,3.38,0,0,1-.74.28A4.18,4.18,0,0,1,268,94.62Zm-1.22,7.93-6,.18c-.14-.41-.48-1-.84-1-.55,0-1,.79-1,1.77s.44,1.77,1,1.77c.32,0,.65-.56.79-.9l6.1.17a3.8,3.8,0,0,1,2.56,1,3.24,3.24,0,0,1,.47.56V101a3.24,3.24,0,0,1-.47.56A3.8,3.8,0,0,1,266.78,102.55Zm.15,8-5.66,3.5c-.36-.31-1-.74-1.38-.54-.52.3-.51,1.3,0,2.23s1.4,1.45,1.92,1.15c.31-.18.31-.9.26-1.31l5.9-3.18a4.23,4.23,0,0,1,3-.44,4.83,4.83,0,0,1,.74.28L270.43,110l-.16-.27L269,107.4a4.65,4.65,0,0,1-.13.79A4.14,4.14,0,0,1,266.93,110.57Zm6.26,5-2.87,5.33c-.42-.09-1.15-.11-1.33.2-.27.47.19,1.25,1,1.74s1.75.5,2,0c.16-.28-.17-.85-.39-1.14l3.2-5.19a3.77,3.77,0,0,1,2.17-1.71,3.89,3.89,0,0,1,.71-.13l-2.08-1.2-.25-.14-2.08-1.21a4,4,0,0,1,.25.68A3.86,3.86,0,0,1,273.19,115.6Zm7,3.87.19,6.66c-.45.15-1.15.53-1.15.92,0,.6.87,1.09,1.94,1.09s1.95-.49,1.95-1.09c0-.36-.62-.71-1-.87l.19-6.71a4.19,4.19,0,0,1,1.12-2.82,4,4,0,0,1,.62-.51h-5.61a3.92,3.92,0,0,1,.61.51A4.2,4.2,0,0,1,280.22,119.47Zm7.47-2.9,3.18,5.15c-.28.32-.67.94-.49,1.25.28.47,1.19.46,2,0s1.32-1.27,1-1.74c-.16-.28-.81-.28-1.18-.24l-2.9-5.36a3.81,3.81,0,0,1-.39-2.74,3.32,3.32,0,0,1,.25-.68l-2.09,1.21-.24.14-2.09,1.2a3.84,3.84,0,0,1,.72.13A3.75,3.75,0,0,1,287.69,116.57Zm6.87-4.15,5.86,3.16c-.09.46-.11,1.26.23,1.46.52.3,1.38-.21,1.91-1.14s.56-1.93,0-2.23c-.3-.18-.93.18-1.25.42l-5.71-3.52a4.13,4.13,0,0,1-1.88-2.38,3.26,3.26,0,0,1-.13-.79l-1.33,2.3-.15.27-1.33,2.29a4.57,4.57,0,0,1,.75-.28A4.19,4.19,0,0,1,294.56,112.42Zm1.23-7.93,6-.17c.14.4.48,1,.83,1,.55,0,1-.79,1-1.77s-.45-1.77-1-1.77c-.32,0-.64.57-.79.91l-6.09-.18a3.85,3.85,0,0,1-2.57-1,3.72,3.72,0,0,1-.46-.56v5.1a3.72,3.72,0,0,1,.46-.56A3.85,3.85,0,0,1,295.79,104.49Zm-.16-8L301.3,93c.35.31,1,.74,1.37.54.52-.3.51-1.3,0-2.23s-1.39-1.44-1.92-1.14c-.3.18-.3.89-.25,1.3l-5.91,3.18a4.14,4.14,0,0,1-3,.44,3.27,3.27,0,0,1-.75-.28l1.33,2.3.15.27,1.33,2.29a3.35,3.35,0,0,1,.13-.79A4.19,4.19,0,0,1,295.63,96.47Zm-6.26-5,2.88-5.33c.42.08,1.14.11,1.32-.2.28-.48-.19-1.26-1-1.75s-1.76-.5-2,0c-.17.28.16.84.38,1.14l-3.2,5.19a3.53,3.53,0,0,1-2.88,1.83l2.09,1.2.24.14,2.09,1.21a3.32,3.32,0,0,1-.25-.68A3.77,3.77,0,0,1,289.37,91.45Z" style="fill:#37474F;stroke:#263238;stroke-linecap:round;stroke-linejoin:round"></path><path d="M268.82,98.85a4.82,4.82,0,0,1,.13.79l1.32-2.29.16-.27,1.32-2.3a3.38,3.38,0,0,1-.74.28,4.18,4.18,0,0,1-3-.44l-2.19-1.18a19.62,19.62,0,0,0-1,1.72l2.11,1.31A4.21,4.21,0,0,1,268.82,98.85Z" style="fill:#263238;stroke:#263238;stroke-linecap:round;stroke-linejoin:round"></path><path d="M277,114.86a3.89,3.89,0,0,1,.71-.13l-2.08-1.2-.25-.14-2.08-1.21a4,4,0,0,1,.25.68,3.86,3.86,0,0,1-.4,2.74l-1.87,3.47c.48.3,1,.59,1.48.85l2.07-3.35A3.77,3.77,0,0,1,277,114.86Z" style="fill:#263238;stroke:#263238;stroke-linecap:round;stroke-linejoin:round"></path><path d="M271,112a4.83,4.83,0,0,1,.74.28L270.43,110l-.16-.27L269,107.4a4.65,4.65,0,0,1-.13.79,4.14,4.14,0,0,1-1.89,2.38l-2.11,1.31a18.26,18.26,0,0,0,1,1.72l2.19-1.18A4.23,4.23,0,0,1,271,112Z" style="fill:#263238;stroke:#263238;stroke-linecap:round;stroke-linejoin:round"></path><path d="M289.37,115.6a3.81,3.81,0,0,1-.39-2.74,3.32,3.32,0,0,1,.25-.68l-2.09,1.21-.24.14-2.09,1.2a3.84,3.84,0,0,1,.72.13,3.75,3.75,0,0,1,2.16,1.71l2.07,3.35a15.43,15.43,0,0,0,1.48-.86Z" style="fill:#263238;stroke:#263238;stroke-linecap:round;stroke-linejoin:round"></path><path d="M283.47,116.65a4,4,0,0,1,.62-.51h-5.61a3.92,3.92,0,0,1,.61.51,4.2,4.2,0,0,1,1.13,2.82l.07,2.49q.49,0,1,0c.34,0,.67,0,1,0l.07-2.49A4.19,4.19,0,0,1,283.47,116.65Z" style="fill:#263238;stroke:#263238;stroke-linecap:round;stroke-linejoin:round"></path><path d="M293.75,108.19a3.26,3.26,0,0,1-.13-.79l-1.33,2.3-.15.27-1.33,2.29a4.57,4.57,0,0,1,.75-.28,4.19,4.19,0,0,1,3,.44l2.19,1.18c.36-.55.69-1.13,1-1.72l-2.12-1.31A4.13,4.13,0,0,1,293.75,108.19Z" style="fill:#263238;stroke:#263238;stroke-linecap:round;stroke-linejoin:round"></path><path d="M293.22,101.53a3.72,3.72,0,0,1-.46-.56v5.1a3.72,3.72,0,0,1,.46-.56,3.85,3.85,0,0,1,2.57-1l3.94-.11c0-.29,0-.57,0-.86s0-.57,0-.85l-3.94-.12A3.85,3.85,0,0,1,293.22,101.53Z" style="fill:#263238;stroke:#263238;stroke-linecap:round;stroke-linejoin:round"></path><path d="M269.34,105.51a3.24,3.24,0,0,1,.47.56V101a3.24,3.24,0,0,1-.47.56,3.8,3.8,0,0,1-2.56,1l-3.94.12c0,.28,0,.56,0,.85s0,.57,0,.86l3.94.11A3.8,3.8,0,0,1,269.34,105.51Z" style="fill:#263238;stroke:#263238;stroke-linecap:round;stroke-linejoin:round"></path><path d="M291.56,95.06a3.27,3.27,0,0,1-.75-.28l1.33,2.3.15.27,1.33,2.29a3.35,3.35,0,0,1,.13-.79,4.19,4.19,0,0,1,1.88-2.38l2.12-1.31c-.31-.59-.64-1.16-1-1.72l-2.19,1.18A4.14,4.14,0,0,1,291.56,95.06Z" style="fill:#263238;stroke:#263238;stroke-linecap:round;stroke-linejoin:round"></path><path d="M285.53,92.19a3.86,3.86,0,0,1-.72.12l2.09,1.2.24.14,2.09,1.21a3.32,3.32,0,0,1-.25-.68,3.77,3.77,0,0,1,.39-2.73L291.24,88a16.76,16.76,0,0,0-1.48-.86l-2.07,3.36A3.83,3.83,0,0,1,285.53,92.19Z" style="fill:#263238;stroke:#263238;stroke-linecap:round;stroke-linejoin:round"></path><path d="M279.09,90.39a3.92,3.92,0,0,1-.61.51h5.61a4,4,0,0,1-.62-.51,4.17,4.17,0,0,1-1.12-2.82l-.07-2.49-1,0-1,0-.07,2.49A4.18,4.18,0,0,1,279.09,90.39Z" style="fill:#263238;stroke:#263238;stroke-linecap:round;stroke-linejoin:round"></path><path d="M273.19,91.45a3.83,3.83,0,0,1,.4,2.73,4,4,0,0,1-.25.68l2.08-1.21.25-.14,2.08-1.2a3.9,3.9,0,0,1-.71-.12,3.85,3.85,0,0,1-2.17-1.71l-2.07-3.36c-.51.27-1,.55-1.48.86Z" style="fill:#263238;stroke:#263238;stroke-linecap:round;stroke-linejoin:round"></path><circle cx="281.28" cy="103.52" r="16.97" transform="translate(143.71 369.81) rotate(-82.88)" style="fill:#263238;stroke:#263238;stroke-linecap:round;stroke-linejoin:round"></circle><path d="M282.6,90.57a1.75,1.75,0,1,1-1.74-1.67A1.7,1.7,0,0,1,282.6,90.57Z" style="fill:#37474F"></path><path d="M272.05,104a1.75,1.75,0,1,1-1.75-1.66A1.7,1.7,0,0,1,272.05,104Z" style="fill:#37474F"></path><path d="M279.87,99.7A1.75,1.75,0,1,1,278.12,98,1.71,1.71,0,0,1,279.87,99.7Z" style="fill:#37474F"></path><path d="M275.79,114.17a1.75,1.75,0,1,1-1.74-1.67A1.7,1.7,0,0,1,275.79,114.17Z" style="fill:#37474F"></path><path d="M294.84,107.18a1.75,1.75,0,1,1-1.75-1.66A1.7,1.7,0,0,1,294.84,107.18Z" style="fill:#37474F"></path><path d="M282.34,109.45a1.75,1.75,0,1,1-1.75-1.66A1.71,1.71,0,0,1,282.34,109.45Z" style="fill:#37474F"></path><path d="M288,102.8a1.75,1.75,0,1,1-1.75-1.66A1.71,1.71,0,0,1,288,102.8Z" style="fill:#37474F"></path><path d="M292.22,95.05a1.75,1.75,0,1,1-1.75-1.66A1.71,1.71,0,0,1,292.22,95.05Z" style="fill:#37474F"></path><path d="M288.19,115a1.75,1.75,0,1,1-1.75-1.66A1.71,1.71,0,0,1,288.19,115Z" style="fill:#37474F"></path><path d="M273.88,93.54a1.75,1.75,0,1,1-1.75-1.66A1.7,1.7,0,0,1,273.88,93.54Z" style="fill:#37474F"></path><path d="M135.16,60.59a2.78,2.78,0,0,0,.45.37h-4.1a2.78,2.78,0,0,0,.45-.37,3.06,3.06,0,0,0,.82-2.06l.14-4.9c-.27-.12-.73-.38-.73-.64,0-.44.64-.8,1.43-.8s1.42.36,1.42.8c0,.29-.52.56-.84.67l.14,4.87A3.06,3.06,0,0,0,135.16,60.59Zm-6.29.06-2.32-3.76c.2-.24.48-.69.35-.92s-.86-.33-1.48,0-1,.93-.76,1.28c.12.2.6.2.86.17l2.12,3.92a2.8,2.8,0,0,1,.29,2,2.75,2.75,0,0,1-.18.5l1.52-.88.18-.1L131,62a2.94,2.94,0,0,1-.53-.08A2.78,2.78,0,0,1,128.87,60.65Zm-5,3-4.29-2.31c.07-.34.09-.93-.16-1.07s-1,.15-1.4.83-.41,1.42,0,1.64.68-.14.92-.32L123.07,65a3,3,0,0,1,1.37,1.74,2.6,2.6,0,0,1,.1.58l1-1.68.11-.2,1-1.68A3.1,3.1,0,0,1,126,64,3,3,0,0,1,123.85,63.69Zm-.9,5.8-4.42.12c-.1-.29-.35-.76-.62-.76s-.72.58-.72,1.29.32,1.3.72,1.3c.24,0,.48-.42.59-.67l4.45.13a2.82,2.82,0,0,1,1.88.75,2.85,2.85,0,0,1,.34.41V68.33a2.85,2.85,0,0,1-.34.41A2.82,2.82,0,0,1,123,69.49Zm.12,5.86-4.15,2.56c-.26-.23-.75-.54-1-.4s-.37,1,0,1.64,1,1,1.4.83c.23-.13.23-.65.19-1l4.32-2.33a3,3,0,0,1,2.19-.32,2.48,2.48,0,0,1,.55.21l-1-1.68-.11-.2-1-1.68a2.6,2.6,0,0,1-.1.58A3,3,0,0,1,123.07,75.35ZM127.64,79l-2.1,3.9c-.31-.06-.84-.08-1,.15s.14.92.76,1.27,1.28.37,1.48,0-.12-.61-.28-.83l2.34-3.8a2.8,2.8,0,0,1,1.58-1.25,4.18,4.18,0,0,1,.53-.09l-1.53-.88-.18-.1-1.52-.88a2.51,2.51,0,0,1,.18.5A2.77,2.77,0,0,1,127.64,79Zm5.14,2.84.14,4.87c-.33.11-.84.38-.84.67s.64.8,1.42.8,1.43-.36,1.43-.8c0-.26-.46-.52-.73-.64l.14-4.9a3.06,3.06,0,0,1,.82-2.06,2.82,2.82,0,0,1,.45-.38h-4.1a2.82,2.82,0,0,1,.45.38A3.06,3.06,0,0,1,132.78,81.86Zm5.47-2.13,2.32,3.77c-.2.24-.49.69-.36.92s.87.33,1.49,0,1-.93.76-1.28-.6-.2-.87-.17L139.48,79a2.76,2.76,0,0,1-.29-2,2.51,2.51,0,0,1,.18-.5l-1.53.88-.18.1-1.52.88a3.74,3.74,0,0,1,.52.09A2.82,2.82,0,0,1,138.25,79.73Zm5-3L147.56,79c-.07.34-.09.93.16,1.07s1-.15,1.4-.83.4-1.42,0-1.64c-.22-.13-.68.14-.91.32l-4.18-2.58a3,3,0,0,1-1.37-1.74,2.6,2.6,0,0,1-.1-.58l-1,1.68-.12.2-1,1.68a2.41,2.41,0,0,1,.54-.21A3.08,3.08,0,0,1,143.27,76.7Zm.89-5.8,4.43-.13c.1.3.35.77.61.77s.73-.58.73-1.29-.33-1.3-.73-1.3c-.23,0-.47.41-.58.66l-4.46-.12a2.79,2.79,0,0,1-1.87-.75,2.32,2.32,0,0,1-.34-.41v3.73a2.32,2.32,0,0,1,.34-.41A2.79,2.79,0,0,1,144.16,70.9ZM144.05,65l4.14-2.56c.27.23.76.54,1,.39s.37-.95,0-1.63-1-1.05-1.4-.83c-.23.13-.23.65-.19,1l-4.32,2.33a3.08,3.08,0,0,1-2.2.32,3,3,0,0,1-.54-.21l1,1.68.12.2,1,1.68a2.6,2.6,0,0,1,.1-.58A3,3,0,0,1,144.05,65Zm-4.57-3.68,2.1-3.89c.3.06.84.08,1-.15s-.14-.92-.76-1.28-1.29-.36-1.49,0,.12.62.29.84l-2.34,3.79a2.8,2.8,0,0,1-1.59,1.26,2.7,2.7,0,0,1-.52.08l1.52.89.18.1,1.53.88a2.66,2.66,0,0,1,.11-2.5Z" style="fill:#37474F;stroke:#263238;stroke-linecap:round;stroke-linejoin:round"></path><path d="M124.44,66.78a2.6,2.6,0,0,1,.1.58l1-1.68.11-.2,1-1.68A3.1,3.1,0,0,1,126,64a3,3,0,0,1-2.19-.32l-1.6-.87a13.27,13.27,0,0,0-.73,1.26l1.55,1A3,3,0,0,1,124.44,66.78Z" style="fill:#263238;stroke:#263238;stroke-linecap:round;stroke-linejoin:round"></path><path d="M130.45,78.48a4.18,4.18,0,0,1,.53-.09l-1.53-.88-.18-.1-1.52-.88a2.51,2.51,0,0,1,.18.5,2.77,2.77,0,0,1-.29,2l-1.37,2.54c.35.23.72.43,1.09.63l1.51-2.46A2.8,2.8,0,0,1,130.45,78.48Z" style="fill:#263238;stroke:#263238;stroke-linecap:round;stroke-linejoin:round"></path><path d="M126,76.38a2.48,2.48,0,0,1,.55.21l-1-1.68-.11-.2-1-1.68a2.6,2.6,0,0,1-.1.58,3,3,0,0,1-1.37,1.74l-1.55,1a12,12,0,0,0,.73,1.25l1.6-.86A3,3,0,0,1,126,76.38Z" style="fill:#263238;stroke:#263238;stroke-linecap:round;stroke-linejoin:round"></path><path d="M139.48,79a2.76,2.76,0,0,1-.29-2,2.51,2.51,0,0,1,.18-.5l-1.53.88-.18.1-1.52.88a3.74,3.74,0,0,1,.52.09,2.82,2.82,0,0,1,1.59,1.25l1.51,2.46c.37-.2.73-.4,1.08-.63Z" style="fill:#263238;stroke:#263238;stroke-linecap:round;stroke-linejoin:round"></path><path d="M135.16,79.8a2.82,2.82,0,0,1,.45-.38h-4.1a2.82,2.82,0,0,1,.45.38,3.06,3.06,0,0,1,.82,2.06l.05,1.82.73,0,.73,0,.05-1.82A3.06,3.06,0,0,1,135.16,79.8Z" style="fill:#263238;stroke:#263238;stroke-linecap:round;stroke-linejoin:round"></path><path d="M142.68,73.61a2.6,2.6,0,0,1-.1-.58l-1,1.68-.12.2-1,1.68a2.41,2.41,0,0,1,.54-.21,3.08,3.08,0,0,1,2.2.32l1.6.86a14.07,14.07,0,0,0,.73-1.25l-1.55-1A3,3,0,0,1,142.68,73.61Z" style="fill:#263238;stroke:#263238;stroke-linecap:round;stroke-linejoin:round"></path><path d="M142.29,68.74a2.32,2.32,0,0,1-.34-.41v3.73a2.32,2.32,0,0,1,.34-.41,2.79,2.79,0,0,1,1.87-.75l2.89-.08c0-.21,0-.42,0-.63s0-.41,0-.62l-2.89-.08A2.79,2.79,0,0,1,142.29,68.74Z" style="fill:#263238;stroke:#263238;stroke-linecap:round;stroke-linejoin:round"></path><path d="M124.83,71.65a2.85,2.85,0,0,1,.34.41V68.33a2.85,2.85,0,0,1-.34.41,2.82,2.82,0,0,1-1.88.75l-2.88.08c0,.21,0,.41,0,.62s0,.42,0,.63l2.88.08A2.82,2.82,0,0,1,124.83,71.65Z" style="fill:#263238;stroke:#263238;stroke-linecap:round;stroke-linejoin:round"></path><path d="M141.07,64a3,3,0,0,1-.54-.21l1,1.68.12.2,1,1.68a2.6,2.6,0,0,1,.1-.58A3,3,0,0,1,144.05,65l1.55-1c-.22-.43-.47-.85-.73-1.26l-1.6.87A3.08,3.08,0,0,1,141.07,64Z" style="fill:#263238;stroke:#263238;stroke-linecap:round;stroke-linejoin:round"></path><path d="M136.66,61.91a2.7,2.7,0,0,1-.52.08l1.52.89.18.1,1.53.88a2.66,2.66,0,0,1,.11-2.5l1.36-2.53a11.68,11.68,0,0,0-1.08-.63l-1.51,2.45A2.8,2.8,0,0,1,136.66,61.91Z" style="fill:#263238;stroke:#263238;stroke-linecap:round;stroke-linejoin:round"></path><path d="M132,60.59a2.78,2.78,0,0,1-.45.37h4.1a2.78,2.78,0,0,1-.45-.37,3.06,3.06,0,0,1-.82-2.06l-.05-1.82-.73,0-.73,0-.05,1.82A3.06,3.06,0,0,1,132,60.59Z" style="fill:#263238;stroke:#263238;stroke-linecap:round;stroke-linejoin:round"></path><path d="M127.64,61.36a2.8,2.8,0,0,1,.29,2,2.75,2.75,0,0,1-.18.5l1.52-.88.18-.1L131,62a2.94,2.94,0,0,1-.53-.08,2.78,2.78,0,0,1-1.58-1.26l-1.51-2.45a10.65,10.65,0,0,0-1.09.63Z" style="fill:#263238;stroke:#263238;stroke-linecap:round;stroke-linejoin:round"></path><circle cx="133.56" cy="70.19" r="12.41" style="fill:#263238;stroke:#263238;stroke-linecap:round;stroke-linejoin:round"></circle><path d="M134.52,60.72a1.28,1.28,0,1,1-1.27-1.21A1.25,1.25,0,0,1,134.52,60.72Z" style="fill:#37474F"></path><path d="M126.81,70.56a1.28,1.28,0,1,1-1.28-1.22A1.25,1.25,0,0,1,126.81,70.56Z" style="fill:#37474F"></path><path d="M132.52,67.4a1.28,1.28,0,1,1-1.27-1.22A1.24,1.24,0,0,1,132.52,67.4Z" style="fill:#37474F"></path><path d="M129.54,78a1.28,1.28,0,1,1-1.27-1.22A1.25,1.25,0,0,1,129.54,78Z" style="fill:#37474F"></path><path d="M143.47,72.87a1.28,1.28,0,1,1-1.27-1.22A1.25,1.25,0,0,1,143.47,72.87Z" style="fill:#37474F"></path><path d="M134.33,74.53a1.28,1.28,0,1,1-1.27-1.21A1.25,1.25,0,0,1,134.33,74.53Z" style="fill:#37474F"></path><path d="M138.47,69.67a1.28,1.28,0,0,1-2.56,0,1.28,1.28,0,0,1,2.56,0Z" style="fill:#37474F"></path><path d="M141.55,64a1.28,1.28,0,1,1-1.27-1.22A1.25,1.25,0,0,1,141.55,64Z" style="fill:#37474F"></path><path d="M138.61,78.59a1.28,1.28,0,1,1-1.28-1.22A1.24,1.24,0,0,1,138.61,78.59Z" style="fill:#37474F"></path><path d="M128.15,62.9a1.28,1.28,0,1,1-1.28-1.22A1.25,1.25,0,0,1,128.15,62.9Z" style="fill:#37474F"></path><path d="M437.27,161.73a2.78,2.78,0,0,0,.45.37h-4.1a2.33,2.33,0,0,0,.44-.37,3.07,3.07,0,0,0,.83-2.06l.14-4.9c-.28-.12-.73-.38-.73-.64,0-.44.64-.8,1.42-.8s1.43.36,1.43.8c0,.29-.52.56-.85.67l.15,4.87A3,3,0,0,0,437.27,161.73Zm-6.29.06L428.65,158c.21-.24.49-.69.36-.92s-.86-.34-1.48,0-1,.93-.76,1.28.59.2.86.17l2.12,3.92a2.8,2.8,0,0,1,.29,2,2.75,2.75,0,0,1-.18.5l1.52-.88.18-.11,1.53-.88a2.17,2.17,0,0,1-.53-.09A2.73,2.73,0,0,1,431,161.79Zm-5,3-4.28-2.32c.06-.33.09-.92-.16-1.06s-1,.15-1.41.83-.4,1.41,0,1.63.68-.13.92-.31l4.17,2.58a3.06,3.06,0,0,1,1.38,1.74,3.39,3.39,0,0,1,.1.57l1-1.67.11-.2,1-1.68a2.63,2.63,0,0,1-.55.2A3.08,3.08,0,0,1,426,164.83Zm-.89,5.79-4.42.13c-.11-.29-.36-.76-.62-.76s-.72.58-.72,1.29.32,1.3.72,1.3c.24,0,.48-.42.58-.67l4.46.13a2.79,2.79,0,0,1,1.88.75,2.28,2.28,0,0,1,.33.41v-3.73a2.69,2.69,0,0,1-.33.41A2.83,2.83,0,0,1,425.06,170.62Zm.11,5.87L421,179.05c-.26-.23-.76-.54-1-.4s-.38.95,0,1.64,1,1.05,1.4.83c.22-.13.22-.65.19-1l4.31-2.33a3.08,3.08,0,0,1,2.2-.32,3.34,3.34,0,0,1,.55.2l-1-1.67-.11-.2-1-1.68a3.33,3.33,0,0,1-.1.58A3.09,3.09,0,0,1,425.17,176.49Zm4.58,3.67-2.1,3.9c-.31-.06-.84-.08-1,.15s.14.92.76,1.27,1.28.37,1.48,0c.12-.2-.12-.61-.28-.83l2.34-3.8a2.77,2.77,0,0,1,1.58-1.25,3.89,3.89,0,0,1,.53-.09l-1.53-.88-.18-.1-1.52-.88a2.51,2.51,0,0,1,.18.5A2.77,2.77,0,0,1,429.75,180.16Zm5.14,2.84.14,4.87c-.33.11-.84.38-.84.67,0,.44.63.8,1.42.8s1.42-.36,1.42-.8c0-.26-.45-.52-.73-.64l.15-4.9a3,3,0,0,1,.82-2.06,2.82,2.82,0,0,1,.45-.38h-4.1a2.36,2.36,0,0,1,.44.38A3.07,3.07,0,0,1,434.89,183Zm5.47-2.13,2.32,3.77c-.21.24-.49.69-.36.91s.87.34,1.49,0,1-.93.76-1.28-.6-.21-.87-.17l-2.12-3.93a2.77,2.77,0,0,1-.29-2,2.56,2.56,0,0,1,.19-.5l-1.53.88-.18.1-1.52.88a4,4,0,0,1,.52.09A2.82,2.82,0,0,1,440.36,180.87Zm5-3,4.28,2.31c-.06.34-.08.93.17,1.07s1-.15,1.4-.84.4-1.41,0-1.63c-.22-.13-.68.13-.92.31l-4.17-2.57a3.09,3.09,0,0,1-1.38-1.74,2.61,2.61,0,0,1-.09-.58l-1,1.68-.12.2-1,1.67a3.34,3.34,0,0,1,.55-.2A3.08,3.08,0,0,1,445.38,177.84Zm.89-5.8,4.43-.13c.1.3.35.77.61.77s.73-.58.73-1.29-.33-1.3-.73-1.3c-.24,0-.47.41-.58.66l-4.46-.13a2.78,2.78,0,0,1-1.87-.74,2.74,2.74,0,0,1-.34-.41v3.73a2.32,2.32,0,0,1,.34-.41A2.75,2.75,0,0,1,446.27,172Zm-.11-5.86,4.14-2.56c.26.23.76.54,1,.39s.37-.95,0-1.63-1-1-1.41-.83c-.22.13-.22.65-.18.95l-4.32,2.33a3,3,0,0,1-2.2.31,2.63,2.63,0,0,1-.55-.2l1,1.68.12.2,1,1.67a2.61,2.61,0,0,1,.09-.57A3.06,3.06,0,0,1,446.16,166.18Zm-4.58-3.68,2.1-3.89c.31.06.84.08,1-.15s-.14-.92-.76-1.28-1.29-.36-1.49,0,.12.62.29.84l-2.34,3.79a2.78,2.78,0,0,1-1.59,1.25,2.18,2.18,0,0,1-.52.09l1.52.88.18.11,1.53.88a2.21,2.21,0,0,1-.19-.5A2.8,2.8,0,0,1,441.58,162.5Z" style="fill:#37474F;stroke:#263238;stroke-linecap:round;stroke-linejoin:round"></path><path d="M426.55,167.92a3.39,3.39,0,0,1,.1.57l1-1.67.11-.2,1-1.68a2.63,2.63,0,0,1-.55.2,3.08,3.08,0,0,1-2.2-.31l-1.59-.87a13.27,13.27,0,0,0-.73,1.26l1.54,1A3.06,3.06,0,0,1,426.55,167.92Z" style="fill:#263238;stroke:#263238;stroke-linecap:round;stroke-linejoin:round"></path><path d="M432.56,179.62a3.89,3.89,0,0,1,.53-.09l-1.53-.88-.18-.1-1.52-.88a2.51,2.51,0,0,1,.18.5,2.77,2.77,0,0,1-.29,2l-1.37,2.54c.35.22.71.43,1.09.63l1.51-2.46A2.77,2.77,0,0,1,432.56,179.62Z" style="fill:#263238;stroke:#263238;stroke-linecap:round;stroke-linejoin:round"></path><path d="M428.15,177.52a3.34,3.34,0,0,1,.55.2l-1-1.67-.11-.2-1-1.68a3.33,3.33,0,0,1-.1.58,3.09,3.09,0,0,1-1.38,1.74l-1.54.95a11.18,11.18,0,0,0,.73,1.26l1.59-.86A3.08,3.08,0,0,1,428.15,177.52Z" style="fill:#263238;stroke:#263238;stroke-linecap:round;stroke-linejoin:round"></path><path d="M441.58,180.16a2.77,2.77,0,0,1-.29-2,2.56,2.56,0,0,1,.19-.5l-1.53.88-.18.1-1.52.88a4,4,0,0,1,.52.09,2.82,2.82,0,0,1,1.59,1.25l1.51,2.46q.56-.3,1.08-.63Z" style="fill:#263238;stroke:#263238;stroke-linecap:round;stroke-linejoin:round"></path><path d="M437.27,180.94a2.82,2.82,0,0,1,.45-.38h-4.1a2.36,2.36,0,0,1,.44.38,3.07,3.07,0,0,1,.83,2.06l.05,1.82.73,0,.72,0,.06-1.82A3,3,0,0,1,437.27,180.94Z" style="fill:#263238;stroke:#263238;stroke-linecap:round;stroke-linejoin:round"></path><path d="M444.78,174.75a2.61,2.61,0,0,1-.09-.58l-1,1.68-.12.2-1,1.67a3.34,3.34,0,0,1,.55-.2,3.08,3.08,0,0,1,2.2.32l1.6.86a12.94,12.94,0,0,0,.73-1.26l-1.55-.95A3.09,3.09,0,0,1,444.78,174.75Z" style="fill:#263238;stroke:#263238;stroke-linecap:round;stroke-linejoin:round"></path><path d="M444.4,169.88a2.74,2.74,0,0,1-.34-.41v3.73a2.32,2.32,0,0,1,.34-.41,2.75,2.75,0,0,1,1.87-.75l2.88-.08c0-.21,0-.42,0-.63s0-.41,0-.62l-2.88-.09A2.78,2.78,0,0,1,444.4,169.88Z" style="fill:#263238;stroke:#263238;stroke-linecap:round;stroke-linejoin:round"></path><path d="M426.94,172.79a2.28,2.28,0,0,1,.33.41v-3.73a2.69,2.69,0,0,1-.33.41,2.83,2.83,0,0,1-1.88.74l-2.88.09c0,.21,0,.41,0,.62s0,.42,0,.63l2.88.08A2.79,2.79,0,0,1,426.94,172.79Z" style="fill:#263238;stroke:#263238;stroke-linecap:round;stroke-linejoin:round"></path><path d="M443.18,165.14a2.63,2.63,0,0,1-.55-.2l1,1.68.12.2,1,1.67a2.61,2.61,0,0,1,.09-.57,3.06,3.06,0,0,1,1.38-1.74l1.55-1c-.22-.43-.47-.85-.73-1.26l-1.6.87A3,3,0,0,1,443.18,165.14Z" style="fill:#263238;stroke:#263238;stroke-linecap:round;stroke-linejoin:round"></path><path d="M438.77,163a2.18,2.18,0,0,1-.52.09l1.52.88.18.11,1.53.88a2.58,2.58,0,0,1,.1-2.5L443,160a11.68,11.68,0,0,0-1.08-.63l-1.51,2.45A2.78,2.78,0,0,1,438.77,163Z" style="fill:#263238;stroke:#263238;stroke-linecap:round;stroke-linejoin:round"></path><path d="M434.06,161.73a2.33,2.33,0,0,1-.44.37h4.1a2.78,2.78,0,0,1-.45-.37,3,3,0,0,1-.82-2.06l-.06-1.82-.72,0-.73,0-.05,1.82A3.07,3.07,0,0,1,434.06,161.73Z" style="fill:#263238;stroke:#263238;stroke-linecap:round;stroke-linejoin:round"></path><path d="M429.75,162.5a2.8,2.8,0,0,1,.29,2,2.75,2.75,0,0,1-.18.5l1.52-.88.18-.11,1.53-.88a2.17,2.17,0,0,1-.53-.09,2.73,2.73,0,0,1-1.58-1.25l-1.52-2.45a11.68,11.68,0,0,0-1.08.63Z" style="fill:#263238;stroke:#263238;stroke-linecap:round;stroke-linejoin:round"></path><path d="M448.07,171.33a12.41,12.41,0,1,0-12.4,12.41A12.4,12.4,0,0,0,448.07,171.33Z" style="fill:#263238;stroke:#263238;stroke-linecap:round;stroke-linejoin:round"></path><path d="M436.63,161.86a1.28,1.28,0,1,1-1.28-1.22A1.25,1.25,0,0,1,436.63,161.86Z" style="fill:#37474F"></path><ellipse cx="427.64" cy="171.7" rx="1.28" ry="1.22" style="fill:#37474F"></ellipse><path d="M434.63,168.54a1.28,1.28,0,1,1-1.27-1.22A1.24,1.24,0,0,1,434.63,168.54Z" style="fill:#37474F"></path><path d="M431.65,179.12a1.28,1.28,0,1,1-1.27-1.22A1.25,1.25,0,0,1,431.65,179.12Z" style="fill:#37474F"></path><path d="M445.58,174a1.28,1.28,0,1,1-1.28-1.22A1.25,1.25,0,0,1,445.58,174Z" style="fill:#37474F"></path><path d="M436.44,175.67a1.28,1.28,0,1,1-1.28-1.21A1.25,1.25,0,0,1,436.44,175.67Z" style="fill:#37474F"></path><path d="M440.58,170.81a1.28,1.28,0,1,1-1.28-1.22A1.25,1.25,0,0,1,440.58,170.81Z" style="fill:#37474F"></path><path d="M443.66,165.14a1.28,1.28,0,1,1-1.27-1.22A1.25,1.25,0,0,1,443.66,165.14Z" style="fill:#37474F"></path><path d="M440.72,179.73a1.28,1.28,0,1,1-1.28-1.22A1.25,1.25,0,0,1,440.72,179.73Z" style="fill:#37474F"></path><ellipse cx="428.98" cy="164.03" rx="1.28" ry="1.22" style="fill:#37474F"></ellipse><path d="M80.3,171.49a2.89,2.89,0,0,0,.37.31H77.33a2.24,2.24,0,0,0,.36-.31,2.43,2.43,0,0,0,.67-1.68l.12-4c-.22-.09-.59-.31-.59-.52,0-.36.51-.65,1.16-.65s1.16.29,1.16.65-.42.46-.69.55l.11,4A2.52,2.52,0,0,0,80.3,171.49Zm-5.12,0-1.89-3.06c.16-.2.39-.56.29-.75s-.71-.27-1.21,0-.78.75-.62,1,.49.16.7.14l1.73,3.19a2.27,2.27,0,0,1,.24,1.63,4.14,4.14,0,0,1-.15.41l1.24-.72.14-.09,1.25-.71a1.83,1.83,0,0,1-.43-.08A2.25,2.25,0,0,1,75.18,171.54ZM71.09,174l-3.49-1.88c.05-.27.07-.75-.14-.87s-.82.13-1.14.68-.33,1.15,0,1.33.56-.11.75-.25l3.4,2.09a2.5,2.5,0,0,1,1.12,1.42,2.43,2.43,0,0,1,.08.47l.79-1.36.09-.16.79-1.37a2.14,2.14,0,0,1-.44.16A2.45,2.45,0,0,1,71.09,174Zm-.73,4.73-3.6.1c-.09-.24-.29-.62-.5-.62s-.59.47-.59,1.05.26,1.06.59,1.06.38-.34.47-.54l3.63.1a2.34,2.34,0,0,1,1.53.61,2.16,2.16,0,0,1,.27.33v-3a2.16,2.16,0,0,1-.27.33A2.34,2.34,0,0,1,70.36,178.74Zm.09,4.78-3.37,2.08c-.22-.19-.62-.44-.82-.32s-.31.77,0,1.33.83.86,1.14.68.18-.53.15-.78l3.52-1.89a2.44,2.44,0,0,1,1.79-.26,2.14,2.14,0,0,1,.44.16l-.79-1.36-.09-.17-.79-1.36a2.43,2.43,0,0,1-.08.47A2.47,2.47,0,0,1,70.45,183.52Zm3.73,3-1.71,3.17c-.25-.05-.69-.06-.79.12s.11.75.62,1,1,.3,1.2,0-.09-.51-.23-.68l1.91-3.09a2.29,2.29,0,0,1,1.29-1,1.93,1.93,0,0,1,.43-.08l-1.25-.71-.14-.09-1.24-.71a3.25,3.25,0,0,1,.15.4A2.27,2.27,0,0,1,74.18,186.51Zm4.18,2.31.12,4c-.27.09-.69.32-.69.55s.52.65,1.16.65,1.16-.29,1.16-.65-.37-.42-.59-.52l.11-4a2.52,2.52,0,0,1,.67-1.68,2.89,2.89,0,0,1,.37-.31H77.33a2.24,2.24,0,0,1,.36.31A2.43,2.43,0,0,1,78.36,188.82Zm4.46-1.73,1.89,3.07c-.17.19-.4.56-.29.74s.71.28,1.21,0,.78-.75.62-1-.49-.17-.71-.14l-1.72-3.2a2.27,2.27,0,0,1-.24-1.63,3.25,3.25,0,0,1,.15-.4l-1.24.71-.15.09L81.1,186a1.93,1.93,0,0,1,.43.08A2.29,2.29,0,0,1,82.82,187.09Zm4.09-2.47,3.49,1.88c-.05.28-.07.75.13.87s.83-.13,1.15-.68.33-1.15,0-1.33-.55.11-.74.25l-3.4-2.09a2.47,2.47,0,0,1-1.12-1.42,2.43,2.43,0,0,1-.08-.47L85.56,183l-.1.17-.78,1.36a2.14,2.14,0,0,1,.44-.16A2.45,2.45,0,0,1,86.91,184.62Zm.73-4.73,3.6-.1c.09.24.29.62.5.62s.59-.47.59-1-.26-1.06-.59-1.06-.38.34-.47.54l-3.63-.1a2.3,2.3,0,0,1-1.53-.61,2.16,2.16,0,0,1-.27-.33v3a2.16,2.16,0,0,1,.27-.33A2.3,2.3,0,0,1,87.64,179.89Zm-.09-4.78L90.92,173c.21.19.62.44.82.32s.3-.77,0-1.33-.83-.86-1.14-.68-.18.54-.15.78L86.91,174a2.45,2.45,0,0,1-1.79.26,2,2,0,0,1-.44-.16l.78,1.37.1.16.79,1.36a2.43,2.43,0,0,1,.08-.47A2.5,2.5,0,0,1,87.55,175.11Zm-3.73-3L85.53,169c.25.05.68.06.79-.12s-.11-.75-.62-1-1-.3-1.21,0,.1.51.24.68l-1.91,3.09a2.25,2.25,0,0,1-1.29,1,1.93,1.93,0,0,1-.43.08l1.24.71.15.09,1.24.72a4.14,4.14,0,0,1-.15-.41A2.27,2.27,0,0,1,83.82,172.12Z" style="fill:#37474F;stroke:#263238;stroke-linecap:round;stroke-linejoin:round"></path><path d="M71.57,176.53a2.43,2.43,0,0,1,.08.47l.79-1.36.09-.16.79-1.37a2.14,2.14,0,0,1-.44.16,2.45,2.45,0,0,1-1.79-.26l-1.31-.7a11.48,11.48,0,0,0-.59,1l1.26.77A2.5,2.5,0,0,1,71.57,176.53Z" style="fill:#263238;stroke:#263238;stroke-linecap:round;stroke-linejoin:round"></path><path d="M76.47,186.07a1.93,1.93,0,0,1,.43-.08l-1.25-.71-.14-.09-1.24-.71a3.25,3.25,0,0,1,.15.4,2.27,2.27,0,0,1-.24,1.63l-1.11,2.06a8.48,8.48,0,0,0,.88.52l1.23-2A2.29,2.29,0,0,1,76.47,186.07Z" style="fill:#263238;stroke:#263238;stroke-linecap:round;stroke-linejoin:round"></path><path d="M72.88,184.36a2.14,2.14,0,0,1,.44.16l-.79-1.36-.09-.17-.79-1.36a2.43,2.43,0,0,1-.08.47,2.47,2.47,0,0,1-1.12,1.42l-1.26.77a9.55,9.55,0,0,0,.6,1l1.3-.7A2.44,2.44,0,0,1,72.88,184.36Z" style="fill:#263238;stroke:#263238;stroke-linecap:round;stroke-linejoin:round"></path><path d="M83.82,186.51a2.27,2.27,0,0,1-.24-1.63,3.25,3.25,0,0,1,.15-.4l-1.24.71-.15.09L81.1,186a1.93,1.93,0,0,1,.43.08,2.29,2.29,0,0,1,1.29,1l1.23,2a7.73,7.73,0,0,0,.88-.51Z" style="fill:#263238;stroke:#263238;stroke-linecap:round;stroke-linejoin:round"></path><path d="M80.3,187.14a2.89,2.89,0,0,1,.37-.31H77.33a2.24,2.24,0,0,1,.36.31,2.43,2.43,0,0,1,.67,1.68l0,1.48h1.18l0-1.48A2.52,2.52,0,0,1,80.3,187.14Z" style="fill:#263238;stroke:#263238;stroke-linecap:round;stroke-linejoin:round"></path><path d="M86.43,182.1a2.43,2.43,0,0,1-.08-.47L85.56,183l-.1.17-.78,1.36a2.14,2.14,0,0,1,.44-.16,2.45,2.45,0,0,1,1.79.26l1.3.7a9.55,9.55,0,0,0,.6-1l-1.26-.77A2.47,2.47,0,0,1,86.43,182.1Z" style="fill:#263238;stroke:#263238;stroke-linecap:round;stroke-linejoin:round"></path><path d="M86.11,178.13a2.16,2.16,0,0,1-.27-.33v3a2.16,2.16,0,0,1,.27-.33,2.3,2.3,0,0,1,1.53-.61l2.35-.07c0-.16,0-.33,0-.5s0-.35,0-.51l-2.35-.07A2.3,2.3,0,0,1,86.11,178.13Z" style="fill:#263238;stroke:#263238;stroke-linecap:round;stroke-linejoin:round"></path><path d="M71.89,180.5a2.16,2.16,0,0,1,.27.33v-3a2.16,2.16,0,0,1-.27.33,2.34,2.34,0,0,1-1.53.61l-2.35.07c0,.17,0,.33,0,.51s0,.34,0,.51l2.35.06A2.34,2.34,0,0,1,71.89,180.5Z" style="fill:#263238;stroke:#263238;stroke-linecap:round;stroke-linejoin:round"></path><path d="M85.12,174.27a2,2,0,0,1-.44-.16l.78,1.37.1.16.79,1.36a2.43,2.43,0,0,1,.08-.47,2.5,2.5,0,0,1,1.12-1.42l1.26-.77a9.55,9.55,0,0,0-.6-1l-1.3.7A2.45,2.45,0,0,1,85.12,174.27Z" style="fill:#263238;stroke:#263238;stroke-linecap:round;stroke-linejoin:round"></path><path d="M81.53,172.56a1.93,1.93,0,0,1-.43.08l1.24.71.15.09,1.24.72a4.14,4.14,0,0,1-.15-.41,2.27,2.27,0,0,1,.24-1.63l1.11-2.06a7.73,7.73,0,0,0-.88-.51l-1.23,2A2.25,2.25,0,0,1,81.53,172.56Z" style="fill:#263238;stroke:#263238;stroke-linecap:round;stroke-linejoin:round"></path><path d="M77.69,171.49a2.24,2.24,0,0,1-.36.31h3.34a2.89,2.89,0,0,1-.37-.31,2.52,2.52,0,0,1-.67-1.68l0-1.48H78.41l0,1.48A2.43,2.43,0,0,1,77.69,171.49Z" style="fill:#263238;stroke:#263238;stroke-linecap:round;stroke-linejoin:round"></path><path d="M74.18,172.12a2.27,2.27,0,0,1,.24,1.63,4.14,4.14,0,0,1-.15.41l1.24-.72.14-.09,1.25-.71a1.83,1.83,0,0,1-.43-.08,2.25,2.25,0,0,1-1.29-1l-1.23-2a7.86,7.86,0,0,0-.89.51Z" style="fill:#263238;stroke:#263238;stroke-linecap:round;stroke-linejoin:round"></path><circle cx="79" cy="179.32" r="10.11" style="fill:#263238;stroke:#263238;stroke-linecap:round;stroke-linejoin:round"></circle><path d="M79.79,171.6a1,1,0,1,1-1-1A1,1,0,0,1,79.79,171.6Z" style="fill:#37474F"></path><path d="M73.5,179.61a1,1,0,1,1-1-1A1,1,0,0,1,73.5,179.61Z" style="fill:#37474F"></path><path d="M78.16,177a1,1,0,0,1-2.08,0,1,1,0,0,1,2.08,0Z" style="fill:#37474F"></path><path d="M75.73,185.66a1,1,0,0,1-2.08,0,1,1,0,0,1,2.08,0Z" style="fill:#37474F"></path><path d="M87.08,181.5a1,1,0,1,1-1-1A1,1,0,0,1,87.08,181.5Z" style="fill:#37474F"></path><ellipse cx="78.59" cy="182.85" rx="1.04" ry="0.99" style="fill:#37474F"></ellipse><path d="M83,178.89a1,1,0,0,1-2.08,0,1,1,0,0,1,2.08,0Z" style="fill:#37474F"></path><ellipse cx="84.47" cy="174.27" rx="1.04" ry="0.99" style="fill:#37474F"></ellipse><path d="M83.11,186.15a1,1,0,0,1-2.08,0,1,1,0,0,1,2.08,0Z" style="fill:#37474F"></path><path d="M74.59,173.37a1,1,0,1,1-1-1A1,1,0,0,1,74.59,173.37Z" style="fill:#37474F"></path></g><g id="freepik--character-4--inject-66"><path d="M381,352.88l-3.39,4.36-1.21,6.05s0,1.7,1,1.7a9.4,9.4,0,0,0,2.67-.73l6.05,1,1.94-9.69Z" style="fill:#fff;stroke:#263238;stroke-linecap:round;stroke-miterlimit:10"></path><polygon points="391.68 320.18 389.5 335.44 379.33 353.12 387.56 358.45 399.92 341.74 396.52 317.27 391.68 320.18" style="fill:#363636;stroke:#263238;stroke-linecap:round;stroke-miterlimit:10"></polygon><path d="M394.59,332.29l-15.26,45.54a33.94,33.94,0,0,0,9.2,4.11c4.85,1.21,7.27.73,7.27.73L399.92,333Z" style="fill:#575757;stroke:#263238;stroke-linecap:round;stroke-miterlimit:10"></path><path d="M412,456.89,409.12,460l-10.41,5.81.24,1.69h22.52a20.85,20.85,0,0,0,0-4.6,24.24,24.24,0,0,0-1.69-6.54Z" style="fill:#fff;stroke:#263238;stroke-linecap:round;stroke-miterlimit:10"></path><polygon points="428.01 360.14 418.81 404.23 420.02 457.03 412.03 456.89 403.31 403.74 403.31 360.14 428.01 360.14" style="fill:#37474F;stroke:#263238;stroke-linecap:round;stroke-miterlimit:10"></polygon><path d="M394.59,360.39s-5.09,37.3-4.36,39.48,29.55,55.95,29.55,55.95l7.75-2.67-17.2-55.46,14.05-36.58Z" style="fill:#37474F;stroke:#263238;stroke-linecap:round;stroke-miterlimit:10"></path><path d="M419.78,455.82l-3.88,5.81s-6.3,4.84-5.57,5.57,8,1,9.45.24,9.69-6.29,10.65-7,1-.73,0-3.39a8,8,0,0,0-2.9-3.88Z" style="fill:#fff;stroke:#263238;stroke-linecap:round;stroke-miterlimit:10"></path><path d="M397.49,283.12s-7.75,24-7.5,27.13,4.36,24.95,4.36,24.95l-1.46,26.64s3.64,1.94,11.63,2.66a81.47,81.47,0,0,0,13.32.25l12.11-1.7,1.94-54-1.7-19.14S429,283.36,420.5,280s-13.56-3.39-13.56-3.39Z" style="fill:#fff;stroke:#263238;stroke-linecap:round;stroke-miterlimit:10"></path><path d="M425.59,250.18s2.66,17.93,5.09,20.83,14.53,2.67,16.47,11.87-3.15,10.66-1.21,14.05,6.78,6.54,4.84,13.56-13.08,8.72-13.08,8.72-6.78-24.22-13.32-29.06-12.11-1.94-10.66-12.6S425.59,250.18,425.59,250.18Z" style="fill:#263238;stroke:#263238;stroke-linecap:round;stroke-miterlimit:10"></path><path d="M419.29,276.58s9.93,4.12,13.57,8,6.54,11.38,8.23,21.07S445.94,389,445.94,389s-16.72,1.69-25.44,1.45-12.11-1-12.11-1-8-41.17-7.75-45.05,10.42-51.83,11.63-55.71S419.29,276.58,419.29,276.58Z" style="fill:#828282;stroke:#263238;stroke-linecap:round;stroke-miterlimit:10"></path><polyline points="423.48 344.27 408.15 345.1 408.15 349.79 431.94 348.54" style="fill:#828282;stroke:#263238;stroke-linecap:round;stroke-miterlimit:10"></polyline><line x1="431.32" y1="343.85" x2="428.2" y2="344.01" style="fill:#828282;stroke:#263238;stroke-linecap:round;stroke-miterlimit:10"></line><polygon points="399.89 280.18 399.81 281.06 396.28 321.62 403.26 324.1 404.39 280.41 399.89 280.18" style="fill:#37474F;stroke:#263238;stroke-linecap:round;stroke-miterlimit:10"></polygon><polygon points="398.99 280.41 393.36 308.56 399.66 309.91 401.91 280.41 398.99 280.41" style="fill:#37474F;stroke:#263238;stroke-linecap:round;stroke-miterlimit:10"></polygon><path d="M394.71,273s.45,1.81.9,3.16-.68,4.28,1.8,5.63,8.33-.45,10.36-2,1.35-6.53,1.13-9.23-1.36-2.26-7-1.58S393.81,270.72,394.71,273Z" style="fill:#37474F;stroke:#263238;stroke-linecap:round;stroke-miterlimit:10"></path><path d="M393.35,242.12s-3.6,7.66-3.6,9.23v4.28l-3.38,4.73A12.72,12.72,0,0,0,387.5,264c.9,1.8,1.8,8.1,3.6,8.78a18.28,18.28,0,0,0,5,.67s6.53-.22,9.68-2.92,3.61-11.26,3.38-13.07-3.83-9-6.31-11.71S394.71,240.09,393.35,242.12Z" style="fill:#fff;stroke:#263238;stroke-linecap:round;stroke-miterlimit:10"></path><path d="M401.69,270.72a8.48,8.48,0,0,1-2.93-5,16.64,16.64,0,0,1-.23-6.76l4.51-1.35-.68-.9a65.74,65.74,0,0,1-6.75,1.8,71.25,71.25,0,0,1-8.56.85l-.68.95A12.72,12.72,0,0,0,387.5,264c.9,1.8,1.8,8.1,3.6,8.78a18.28,18.28,0,0,0,5,.67s6.53-.22,9.68-2.92A6.06,6.06,0,0,0,407,269Z" style="fill:#fff;stroke:#263238;stroke-linecap:round;stroke-miterlimit:10"></path><polygon points="388.4 252.25 389.07 257.66 391.33 257.66 392.45 252.48 388.4 252.25" style="fill:#263238;stroke:#263238;stroke-linecap:round;stroke-miterlimit:10"></polygon><polygon points="392.45 252.48 399.89 252.48 399.66 253.83 389.75 253.83 392.45 252.48" style="fill:#263238;stroke:#263238;stroke-linecap:round;stroke-miterlimit:10"></polygon><path d="M391.77,238.06c0,3.36,2.17,8.26,2.85,10.05a80.55,80.55,0,0,0,8.22,15.34c1.68,2.54,3.51,5.32,3.24,8.36-.23,2.66-2,4.89-2.91,7.42a11.12,11.12,0,0,0,2.41,11.08c.92,1,2.11,1.92,2.25,3.26.25,2.45-3,3.7-4.06,5.91A4.64,4.64,0,0,0,405,304.8a7.17,7.17,0,0,0,5.48,1.56,3,3,0,0,1,.64-3.82c.87-.69,2.13-.86,2.84-1.72,1.43-1.71-.45-4.3,0-6.48.51-2.53,3.71-3.35,5.4-5.3,2.1-2.41,1.54-6,1.42-9.24-.37-9.71,4.4-19,4.75-28.67a9.87,9.87,0,0,0-.87-5.08,10.36,10.36,0,0,0-4.16-3.7,50.54,50.54,0,0,0-11.68-5c-4-1.13-8.27-1-12.2-2.14a6.2,6.2,0,0,0-2.88-.35C392.17,235.21,391.77,236.66,391.77,238.06Z" style="fill:#263238;stroke:#263238;stroke-linecap:round;stroke-miterlimit:10"></path><polygon points="440.37 364.5 439.88 372.5 442.3 377.58 444.97 377.1 445.21 375.16 450.54 372.25 449.57 363.78 440.37 364.5" style="fill:#fff;stroke:#263238;stroke-linecap:round;stroke-miterlimit:10"></polygon><path d="M428,281.43s11.63,8,12.35,10.9,9.45,45.29,9.45,51.1S451,365,451,365l-12.59.48-5.09-26.4L419.54,302" style="fill:#828282;stroke:#263238;stroke-linecap:round;stroke-miterlimit:10"></path></g><g id="freepik--character-3--inject-66"><path d="M340.75,450.12l6.63,1.9s12.08-1.19,11.61.94-21.31,11.37-22.5,11.37-4-13-4-13Z" style="fill:#fff;stroke:#263238;stroke-linecap:round;stroke-miterlimit:10"></path><polygon points="267.82 449.17 263.56 459.59 276.11 466.93 287.95 467.88 287.95 465.28 278.71 458.65 276.35 452.02 267.82 449.17" style="fill:#fff;stroke:#263238;stroke-linecap:round;stroke-miterlimit:10"></polygon><path d="M278,365.35l-.47,47.12-10.89,37.89,11.36,4.5,19.18-38.6L306,374.58s11.84,38.84,11.84,39.55,12.31,40,12.31,40l10.65-4-4-40-3.79-47.83L277.29,358Z" style="fill:#263238;stroke:#263238;stroke-linecap:round;stroke-miterlimit:10"></path><path d="M289.13,280.58S278,291.23,278,293.84s.48,39.78,0,41.2-4.5,29.13-4.5,29.13,16.34,6.86,33.39,6.63,28.18-5.92,28.18-5.92-3.79-36.47-7.1-49.73-9-22.5-10.42-25.81-13.5-9.71-19.18-11.13A9.81,9.81,0,0,0,289.13,280.58Z" style="fill:#37474F;stroke:#263238;stroke-linecap:round;stroke-miterlimit:10"></path><path d="M312.11,328.84c1.87,0,3.51,0,4.73,0" style="fill:none;stroke:#263238;stroke-linecap:round;stroke-miterlimit:10"></path><path d="M291,328.41s8.47.21,16.11.35" style="fill:none;stroke:#263238;stroke-linecap:round;stroke-miterlimit:10"></path><line x1="298.37" y1="318.23" x2="313.76" y2="318.94" style="fill:none;stroke:#263238;stroke-linecap:round;stroke-miterlimit:10"></line><line x1="320.63" y1="339.78" x2="300.26" y2="340.01" style="fill:none;stroke:#263238;stroke-linecap:round;stroke-miterlimit:10"></line><path d="M316.37,352.13c1.5-.07,3-.16,4.49-.28" style="fill:none;stroke:#263238;stroke-linecap:round;stroke-miterlimit:10"></path><path d="M282.27,351.38a273.74,273.74,0,0,0,29.83.91" style="fill:none;stroke:#263238;stroke-linecap:round;stroke-miterlimit:10"></path><path d="M317.32,306.31c-6-.07-14.43-.16-17.77-.16" style="fill:none;stroke:#263238;stroke-linecap:round;stroke-miterlimit:10"></path><path d="M323.94,306.39l-3.32,0" style="fill:none;stroke:#263238;stroke-linecap:round;stroke-miterlimit:10"></path><path d="M313.05,278.68a7.09,7.09,0,0,1,1.65.73,9,9,0,0,1,4.27,6.14c1.18,5.68,0,8.52,0,8.52s-5.92-8.52-7.81-10.65C311.16,283.42,308.79,277.74,313.05,278.68Z" style="fill:#fff;stroke:#263238;stroke-linecap:round;stroke-miterlimit:10"></path><path d="M299.65,244.06s-5.33,3.19-6.18,9.16a14.54,14.54,0,0,0,2.34,10.43c.64,1.28,1.71,4.26,1.71,4.26l-.64,8.95,14.48,6.61,1.71-8.53s4.9.86,7.45-2.76c1.93-2.73,2.28-8.83,2.34-11.68a4.25,4.25,0,0,0-.9-2.7l-2.08-2.67s1.28-3.41-1.06-8.09S305.19,240.65,299.65,244.06Z" style="fill:#fff;stroke:#263238;stroke-linecap:round;stroke-miterlimit:10"></path><path d="M317.36,254.75c0,.71-.24,1.28-.55,1.28s-.54-.57-.54-1.28.24-1.28.54-1.28S317.36,254,317.36,254.75Z" style="fill:#263238"></path><path d="M314.62,253.1s2.2-2.42,4.12-1.12" style="fill:none;stroke:#263238;stroke-linecap:round;stroke-miterlimit:10"></path><path d="M318.71,246.85c-2.55-4.54-13.6-6.16-19.06-2.79,0,0-5.33,3.19-6.18,9.16a14.54,14.54,0,0,0,2.34,10.43c.64,1.28,1.71,4.26,1.71,4.26l0,.37c2.33,1.19,1-.81,1.3-1.64.43-1.07.22-4.9.22-4.9a14.17,14.17,0,0,1,3-2.13c1.92-1.07,1.92-3.2,3.62-4.9s.21-4.9,3.62-7.46C311.73,245.38,316.39,246.25,318.71,246.85Z" style="fill:#263238;stroke:#263238;stroke-linecap:round;stroke-miterlimit:10"></path><path d="M320.52,272.18c1.93-2.73,2.28-8.83,2.34-11.68a4.18,4.18,0,0,0-.63-2.28c-2.75.55-7.88,1.18-12.78,1.81-6.61.85-8.95-.21-8.95-.21l.42,1.7h4.69l.21,7.89-6.6-3.41-.43.64,14.28,8.3S318,275.8,320.52,272.18Z" style="fill:#37474F;stroke:#263238;stroke-linecap:round;stroke-miterlimit:10"></path><path d="M301.78,262.59s-.86-3.62-3-3.41-1.7,4.26-1.06,6.82,3.19,1.91,4.69.64" style="fill:#fff;stroke:#263238;stroke-linecap:round;stroke-miterlimit:10"></path><path d="M300.81,245.48s1.49-.43.21-3.2a4.3,4.3,0,0,0-3.62-2.76s2.77-1.28,1.27-2.13-8.09,1.06-10.43,3.83-4.05,8.52-.64,10.44,7.24-.43,8.94-1.28S300.81,245.48,300.81,245.48Z" style="fill:#263238;stroke:#263238;stroke-linecap:round;stroke-miterlimit:10"></path><path d="M317.55,289.34s-2.37-4.74-9.71-9.71a33.6,33.6,0,0,0-17.29-5.92c-2.6,0-5,2.37-5,6.39s1.19,2.37,8.05,3.56,20.6,6.63,23,8.52,1.9,4,2.37,1.89S317.55,289.34,317.55,289.34Z" style="fill:#fff;stroke:#263238;stroke-linecap:round;stroke-miterlimit:10"></path><path d="M302.16,356.59s3.31,3.55,4.26,5,2.6,8.05,2.6,8.05a1.89,1.89,0,0,1-2.13,1.19,13.11,13.11,0,0,1-1.65-.24c-1.19-.24-.95-.24-3.56.24a4.39,4.39,0,0,1-5.44-3.08,29.05,29.05,0,0,1-1.19-6.63Z" style="fill:#fff;stroke:#263238;stroke-linecap:round;stroke-miterlimit:10"></path><path d="M285.11,286.73s-8.29,4.74-9,7.11S273.74,331,274,333.62,294.82,363,294.82,363l8.52-6.16-9.71-28.65,2.84-29.36" style="fill:#37474F;stroke:#263238;stroke-linecap:round;stroke-miterlimit:10"></path><polygon points="285.82 284.13 327.73 329.12 329.15 327.46 287.24 282.94 285.82 284.13" style="fill:#263238;stroke:#263238;stroke-linecap:round;stroke-miterlimit:10"></polygon><path d="M333.89,326.75l-7.34,1.9s-1.66,24.62-1.66,26.52-1.66,2.84.24,4,3.78,1.66,9.23,1.66,15.39-1.18,16.1-4-1.42-10.41-5-18.94A20.65,20.65,0,0,0,333.89,326.75Z" style="fill:#263238;stroke:#263238;stroke-linecap:round;stroke-miterlimit:10"></path><path d="M337,360.77c-.39-5.76-5.94-31.07-6.35-32.95l-4.05.83s-1.66,24.62-1.66,26.52-1.66,2.84.24,4,3.78,1.66,9.23,1.66C335.14,360.85,336,360.82,337,360.77Z" style="fill:#263238;stroke:#263238;stroke-linecap:round;stroke-miterlimit:10"></path></g><g id="freepik--character-2--inject-66"><path d="M221.69,289.06s5.43,26.64,5.69,29.23.51,3.88.25,4.65-11.38,10.87-11.38,10.87l-2.58-15.52Z" style="fill:#263238;stroke:#263238;stroke-linecap:round;stroke-miterlimit:10"></path><polygon points="180.56 347.25 177.72 358.89 157.03 393.81 144.35 453.81 152.37 460.02 172.54 402.86 194.04 381.37 204.87 409.33 238.46 454.43 246.99 450.55 222.46 403.12 219.88 358.89 216.25 348.55 180.56 347.25" style="fill:#263238;stroke:#263238;stroke-linecap:round;stroke-miterlimit:10"></polygon><polygon points="144.35 453.81 127.03 452.26 126.77 454.07 138.41 462.61 141.51 462.35 143.84 463.64 143.32 465.45 147.97 467.26 152.37 460.02 144.35 453.81" style="fill:#263238;stroke:#263238;stroke-linecap:round;stroke-miterlimit:10"></polygon><polygon points="238.46 454.43 235.36 461.16 229.15 466.59 229.92 467.88 240.79 467.11 247.51 460.12 248.03 461.93 253.2 458.57 249.84 453.14 246.99 450.55 238.46 454.43" style="fill:#263238;stroke:#263238;stroke-linecap:round;stroke-miterlimit:10"></polygon><path d="M193,278.46s-8.28,12.93-8.8,18.62-3.62,50.18-3.62,50.18,3.37,3.62,11.38,3.62,24.31-1.56,24.31-2.33V312.08l-2.32-34.91-10.61-7.76Z" style="fill:#fff;stroke:#263238;stroke-linecap:round;stroke-miterlimit:10"></path><polygon points="193.49 272.77 188.58 275.87 187.29 283.63 195.56 276.65 193.49 272.77" style="fill:#fff;stroke:#263238;stroke-linecap:round;stroke-miterlimit:10"></polygon><path d="M182.31,239.34l-1.68,6.24,1,2.4-2.4,7.43,5.28,11,2.4.48,4.07-1,2.16,12,13.43-10.79-1.2-8.4s4.32-13.67,4.56-17.27,1.2-8.63-2.64-10.79-19.19-1.92-22.78-1.2-5.52,4.56-5,6S182.31,239.34,182.31,239.34Z" style="fill:#fff;stroke:#263238;stroke-linecap:round;stroke-miterlimit:10"></path><ellipse cx="183.96" cy="248.02" rx="0.57" ry="1.32" style="fill:#263238"></ellipse><path d="M186.22,246.32s-2.26-2.5-4.24-1.16" style="fill:none;stroke:#263238;stroke-linecap:round;stroke-miterlimit:10"></path><path d="M207.25,230.71c-3.84-2.16-19.19-1.92-22.78-1.2s-5.52,4.56-5,6,2.88,3.83,2.88,3.83,8.87-1.91,8.39-.24-3.83,4.8-2.4,5.76,4.56,1,4.56,1l1.44,4.8,3.36.48,1.2-3.36s1.68-2.4,3.12-.24,2.63,3.84,1.67,5.76-1.43,2.87-1.43,2.87l3.11,2.64s4.32-13.67,4.56-17.27S211.09,232.87,207.25,230.71Z" style="fill:#263238;stroke:#263238;stroke-linecap:round;stroke-miterlimit:10"></path><path d="M194.3,260.93l-1.44-9.59,4.8-.24.24-1.44-17,1.92a4.85,4.85,0,0,0-.49.16l-1.19,3.67,5.28,11,2.4.48,4.07-1,11.28-9.84Z" style="fill:#37474F;stroke:#263238;stroke-linecap:round;stroke-miterlimit:10"></path><polygon points="206.94 264.49 190.91 277.68 192.46 283.37 208.75 267.6 206.94 264.49" style="fill:#fff;stroke:#263238;stroke-linecap:round;stroke-miterlimit:10"></polygon><path d="M208.75,267.6S193.24,286,192.46,288.8,190.13,318,189.61,325,187,360.19,187,360.19s15,3.36,23,3.36,15.77-5.17,15.77-5.17l-6.46-34.66s5.43-40.35,3.36-44.48S208.75,267.6,208.75,267.6Z" style="fill:#263238;stroke:#263238;stroke-linecap:round;stroke-miterlimit:10"></path><path d="M167.11,340.53l-9.57,5.17s.52,2.07.78,2.85,1.81.77,1.81.77,2.33,3.63,3.88,3.88,7.76-6.46,7.76-6.46l-3.62-6.21Z" style="fill:#fff;stroke:#263238;stroke-linecap:round;stroke-miterlimit:10"></path><polyline points="221.69 292.43 208.24 333.81 170.74 348.81 167.11 340.53 197.37 321.65 205.91 288.29" style="fill:#263238;stroke:#263238;stroke-linecap:round;stroke-miterlimit:10"></polyline><polyline points="193.07 324.84 197.37 321.65 202.44 294.8" style="fill:none;stroke:#878787;stroke-linecap:round;stroke-miterlimit:10"></polyline><line x1="218.19" y1="298.39" x2="218.91" y2="295.77" style="fill:none;stroke:#878787;stroke-linecap:round;stroke-miterlimit:10"></line><polyline points="192.43 340.35 208.9 332.27 217.07 302.49" style="fill:none;stroke:#878787;stroke-linecap:round;stroke-miterlimit:10"></polyline><path d="M187.9,353.91l1.62,13.25s16.8.64,29.39-4.85" style="fill:none;stroke:#878787;stroke-linecap:round;stroke-miterlimit:10"></path></g><g id="freepik--character-1--inject-66"><path d="M66,415.43s-2.56,7.41-2.13,12.82,1.59,31.1,1.59,31.1l.07,8.49,5-.18.41-1.66s2.88,1.31,3.6,1.75,11.79-.42,11.79-.42L85,465.25l-11.33-6.67-.16-4.48,7-36.35Z" style="fill:#263238;stroke:#263238;stroke-linecap:round;stroke-miterlimit:10"></path><polygon points="85.14 417.58 78.05 449.93 76.14 455.89 80.22 457.87 81.8 455.69 84.02 458.44 84.79 460.3 90.09 463.18 94.12 463.74 93.83 462.34 90.37 457.98 86.25 448.21 103.44 414.56 85.14 417.58" style="fill:#263238;stroke:#263238;stroke-linecap:round;stroke-miterlimit:10"></polygon><path d="M87.57,275s-7-3.76-9.11-3.92-16.95,14.3-17.31,17.38-.64,54.3-.64,54.3-5.78,10.12-6,28.77-.57,43.21-.57,43.21S77,419.52,90.62,418.8a112.06,112.06,0,0,0,24.16-3.94s-.73-26.88-1.38-31.81-7.47-43.63-7.47-43.63l1.14-34-.14-4-2-1.58.62-2.38s-2.72-10.05-4.24-13.06-5.69-7.11-5.69-7.11Z" style="fill:#37474F;stroke:#263238;stroke-linecap:round;stroke-miterlimit:10"></path><path d="M93.68,409.94a43.78,43.78,0,0,1-3.16,3.64" style="fill:none;stroke:#263238;stroke-linecap:round;stroke-miterlimit:10"></path><path d="M110.79,385.32S102.61,398.07,96,406.87" style="fill:none;stroke:#263238;stroke-linecap:round;stroke-miterlimit:10"></path><path d="M82.28,410.72c-.78.68-1.47,1.27-2,1.71" style="fill:none;stroke:#263238;stroke-linecap:round;stroke-miterlimit:10"></path><path d="M96.52,397.59s-5.8,5.53-10.78,10" style="fill:none;stroke:#263238;stroke-linecap:round;stroke-miterlimit:10"></path><path d="M79.25,273.36c.74.92,10.59,25.35,10.59,25.35l7,3.05-4.06,5.34,13.53,22.58.81-24.28-.14-4-2-1.58.62-2.38s-2.72-10.05-4.24-13.06-5.69-7.11-5.69-7.11L87.57,275s-7-3.76-9.11-3.92a1.56,1.56,0,0,0-.66.19Z" style="fill:#37474F;stroke:#263238;stroke-linecap:round;stroke-miterlimit:10"></path><path d="M85.5,276.44s6.68,8.73,9.76,15.7,7.46,17,7.46,17,.35-9.93-2-17.39a90.33,90.33,0,0,0-5.18-12.8s-7.75-5.38-9.42-6S83.76,274.15,85.5,276.44Z" style="fill:#828282;stroke:#263238;stroke-linecap:round;stroke-miterlimit:10"></path><polygon points="102.65 287.39 91.91 343.23 93.22 346.73 103.46 290.43 102.65 287.39" style="fill:#263238;stroke:#263238;stroke-linecap:round;stroke-miterlimit:10"></polygon><path d="M60.41,340.12l34.2,6.08-.11,23.13s-2.8.81-15.07.78a74,74,0,0,1-23.77-4.57A98.22,98.22,0,0,1,60.41,340.12Z" style="fill:#263238;stroke:#263238;stroke-linecap:round;stroke-miterlimit:10"></path><path d="M85.49,335.2s7.83,1.37,8.33,2.06,2.55,5.34,2.55,5.34-.34,3.55-1,4.52-3.21,2.48-3.25,1.3a23.46,23.46,0,0,1,.13-2.84s-5.21-.52-6.89-1.4a10.26,10.26,0,0,1-2.92-2.49Z" style="fill:#fff;stroke:#263238;stroke-linecap:round;stroke-miterlimit:10"></path><path d="M70.7,278.39s-11.33,6.54-11.91,10.1-7.28,46.76-7.28,46.76l32,10.17,2.92-10.72L69,323.29l8.19-28.14" style="fill:#37474F;stroke:#263238;stroke-linecap:round;stroke-miterlimit:10"></path><path d="M60.44,327.94a19.59,19.59,0,0,1-2.17.3" style="fill:none;stroke:#263238;stroke-linecap:round;stroke-miterlimit:10"></path><path d="M68.55,324.25a16,16,0,0,1-4.64,2.68" style="fill:none;stroke:#263238;stroke-linecap:round;stroke-miterlimit:10"></path><path d="M60.84,323.68l8.17-.39" style="fill:none;stroke:#263238;stroke-linecap:round;stroke-miterlimit:10"></path><path d="M101.5,268.79s2.19,1.57.1,2.59a13.69,13.69,0,0,0-2.78,1.52c-.69.49-1.55,2.88-1.5,4.3s1.71,1.59.14,3.77-2.76,2-4.71.4-8.46-5.59-9-8.64,2.73-9.54,3.43-9.56S101.5,268.79,101.5,268.79Z" style="fill:#828282;stroke:#263238;stroke-linecap:round;stroke-miterlimit:10"></path><path d="M105.59,244.57a43.22,43.22,0,0,1,1.57,4.19c.27,1.17.59,3.28.59,3.28s2.76,4.62,2.8,5.8-4,12-5.93,12.25a24.54,24.54,0,0,1-3.76.37c-1.18,0-11.71-4.06-11.71-4.06l-4.5-13.53,16.64-9.8Z" style="fill:#fff;stroke:#263238;stroke-linecap:round;stroke-miterlimit:10"></path><ellipse cx="105.02" cy="251.84" rx="0.61" ry="1.42" style="fill:#263238"></ellipse><path d="M102.58,250s2.44-2.7,4.58-1.25" style="fill:none;stroke:#263238;stroke-linecap:round;stroke-miterlimit:10"></path><path d="M109.65,255.5l-23.91.65,3.41,10.25s10.53,4.1,11.71,4.06a24.54,24.54,0,0,0,3.76-.37c1.88-.3,6-11.07,5.93-12.25A8.26,8.26,0,0,0,109.65,255.5Z" style="fill:#fff;stroke:#263238;stroke-linecap:round;stroke-miterlimit:10"></path><path d="M93.06,250.45s-1.35,8.54-.71,13.24,2.37,13.36-.48,19.37-9.75,4.36-9.75,4.36,3.12-5.07,1.58-8.55a53.48,53.48,0,0,0-2.8-5.57s0,8-3.34,12.16S65.42,289.2,64,287.6a11.79,11.79,0,0,0-2.68-2.26s8.32-5,11.35-12.68S75.27,261,75.27,261,90.21,250.08,93.06,250.45Z" style="fill:#263238;stroke:#263238;stroke-linecap:round;stroke-miterlimit:10"></path><path d="M75.27,261l30.32-16.43c.36-.19-7.71-8.11-8.93-8.7-5.65-2.72-13.34-3.16-18.9.1-2.5,1.46-8.46,6.4-9,9.45-.2,1.19,1.23,1.37,2.85.61a37.47,37.47,0,0,1,4.43-1.58S71.6,251,72,254.27,75.27,261,75.27,261Z" style="fill:#828282;stroke:#263238;stroke-linecap:round;stroke-miterlimit:10"></path></g></svg>